<svg width="474" height="579" viewBox="0 0 474 579" fill="none" xmlns="http://www.w3.org/2000/svg">
<path d="M342.31 28.51L341.88 28.06L340.3 26.02L336.98 21.39L333.32 17.2L329.32 13.44L325 10.13L320.22 7.2L315.13 4.75999L309.75 2.81L304.09 1.37999L300.98 0.909988L297.88 0.769989L295.82 0.75L291.53 0.799988L288.45 1.31L285.32 2.14L253.02 10.81L172.73 32.76L163.86 35.25L150.04 39.09L140 41.68L137.24 42.4L133.31 43.44L127.57 45.08L125.52 45.94L123.72 46.92L120.52 49.1L117.61 51.5L115 54.12L112.67 56.95L110.73 59.85L109.06 62.95L107.65 66.25L106.51 69.74L106.06 71.84L105.68 74.79L105.15 78.66L104.97 75.16L105.39 71.83L106.63 67.33L108.28 63.14L110.33 59.27L112.79 55.71L115.54 52.59L118.66 49.75L122.16 47.21L126.04 44.97L129.58 43.68L135.73 42.13L145.53 39.72L267.69 6.12999L285.96 1.23L291.78 0.189987L294.44 0L296.81 0.0299988L303.28 0.809998L309.55 2.29999L315.66 4.5L321.46 7.37L326.83 10.85L331.76 14.93L336.13 19.51L339.97 24.62L342.31 28.51Z" fill="#7D7B77" fill-opacity="0.996"/>
<path d="M342.31 28.51L345.88 35.7L348.63 43.76L348.77 44.16L348.95 46.04L349.35 47.86L349.78 49.15L350.53 54.2L350.16 65.03L350 75.86L350.04 86.67L350.3 97.48L350.24 97.45L350.27 98.2L355.74 98.27L360.81 98.99L365.49 100.37L369.78 102.4L372.12 103.86L374.31 105.47L376.35 107.22L378.23 109.11L381.13 112.72L383.56 116.77L385.53 121.23L387.03 126.13L387.15 127.46L387.05 128.35L387.28 128.99L387.76 129.35L388.49 129.52L391.5 129.87L394.3 130.45L396.89 131.23L399.26 132.24L404.51 134.67L404.55 134.74L405.21 135.18L405.6 135.59L406.71 136.08L408.74 137.78L411.88 141.49L413.52 143.55L415.42 146.38L417.26 149.14L419.44 154.61L419.23 155.56L419.42 156.4L419.95 157.22L420.18 160.71L420.31 161.44L421.14 161.87L422.72 161.8H423.49L430.63 164.5L435.37 166.41L439.88 168.63L444.14 171.17L448.17 174.02L451.5 176.77L454.65 179.77L457.61 183.01L460.39 186.49L462.82 190.15L464.42 192.42L465.43 193.69L467.55 198.24L469.44 203.94L471 209.71L472.08 214.75L472.92 219.85L473.32 225.16L472.97 230.64L472.5 232.75L471.53 237.63L470.72 241.48L469.87 244.53L467.34 251.17L464.29 257.23L460.73 262.72L456.67 267.64L452.76 271.67L448.81 275.41L444.82 278.86L440.8 282.02L431.96 288.85L424.49 295.11L423.74 295.98L422.75 296.71L421.12 297.59L420.65 298.1L420.42 298.66L420.41 299.27L419.88 306.31L419.94 335.22L419.56 355.95L419.65 366.14L419.43 369.57L419.23 372.03L418.96 374.1L418.3 376.24L416.03 381.4L413.98 385.36L411.61 388.24L409.07 390.85L406.36 393.19L403.46 395.27L400.54 396.99L397.47 398.47L394.23 399.7L390.83 400.69L387.75 400.81L258.36 400.95L256.38 401.16L254.96 401.34L239.74 411.9L234.18 415.61L232.82 416.74L231.36 417.69L230.27 418.23L228.67 418.93L227.27 419.82L225.99 420.92L225.1 421.19L224.35 421.65L224.12 421.85L211.51 429.21L206.79 431.63L201.86 433.67L191.82 437.23L180.86 438.2L174.05 438.36L167.49 437.85L161.19 436.66L155.14 434.79L149.8 432.48L144.67 429.6L139.75 426.14L135.05 422.12L132.56 419.38L128.57 414.41L125.27 408.9L123.15 404.79L119.78 395.5L119.62 395.22L119.71 393.65L119.24 392.61L118.52 392.18L111.56 384.74L106.79 375.52L106.64 375.13L106.58 374.21L106.29 373L105.78 371.83L105.53 370.91L105.62 369.76L105.45 368.7L105.11 367.86L105.1 350.6L79.7205 350.02L54.3805 350.15H54.2704L53.7704 350.01L53.3604 349.67L53.1205 349.21L53.0905 348.68L53.4305 343.99L53.0504 339.45L52.8705 327.76L52.7404 327.31L52.3705 327.03L51.4805 326.91L50.3905 327.21H41.1805L39.9405 327.28L38.8905 326.99L32.5005 325.44L26.6405 323.26L23.9005 321.94L21.2905 320.45L18.8205 318.81L16.4705 317.01L13.8604 314.66L11.4305 312.09L9.18045 309.3L7.12045 306.29L4.56046 301.62L2.68045 296.84L1.82047 293.65L1.23047 290.38L0.880463 286.9L0.800446 283.29L0.980469 248.83L0.820465 191.45L0.750458 173.68L0.820465 154.05L0.93045 134.96L0.95047 124.43L0.830444 121.63L0.480469 118.88L0.640472 118.23L1.22046 117.91H1.29047H26.3604H26.3705L27.0105 117.78L27.5605 117.41L27.9205 116.86L28.0405 116.21L27.7704 81.2L102.94 80.94L103.58 81.33L104.2 81.42L104.72 81.26L105.22 80.88L105.48 80.44L105.49 80.26L105.37 79.87L105.06 79.63L105.15 78.66L105.68 74.79L106.06 71.84L106.51 69.74L107.65 66.25L109.06 62.95L110.73 59.85L112.67 56.95L115 54.12L117.61 51.5L120.52 49.1L123.72 46.92L125.52 45.94L127.57 45.08L133.31 43.44L137.24 42.4L140 41.68L150.04 39.09L163.86 35.25L172.73 32.76L253.02 10.81L285.32 2.14L288.45 1.31L291.53 0.799988L295.82 0.75L297.88 0.769989L300.98 0.909988L304.09 1.37999L309.75 2.81L315.13 4.75999L320.22 7.2L325 10.13L329.32 13.44L333.32 17.2L336.98 21.39L340.3 26.02L341.88 28.06L342.31 28.51ZM320.52 45.47L318.14 43.17L315.48 41.19L312.59 39.56L309.52 38.31L306.47 37.52L303.33 37.14L300.26 37.2L297.18 37.7L296.47 37.89L248.85 50.94L192.26 66.52L168.77 72.96L144.41 79.34L141.7 80.22L139.34 81.38L137.34 82.82L135.7 84.54L134.67 86.08L133.85 87.79L133.26 89.67L132.88 91.72L132.92 92.93L133.32 94.02L134.03 94.99L135.1 95.91L136.41 96.69L138.15 97.44L140.16 98.03L142.22 98.42L144.11 98.57L339.23 98.54L339.56 98.4L339.7 98.06L339.73 79.94L339.5 74.59L338.8 70.65L338.57 69.9L337.56 67.11L336.28 64.32L332.22 57.29L330.63 54.69L330.48 54L330.79 53.36L338.24 45.91L338.38 45.32L336.4 40.2L333.97 35.34L331.08 30.77L327.77 26.55L324.17 22.82L320.19 19.49L315.96 16.67L311.39 14.3L307.76 12.85L304.83 11.95L301.91 11.31L298.98 10.94L296.06 10.83L291.72 11.14L287.38 12.04L137.96 53.08L135.89 53.6L131.76 54.7L129.04 55.76L126.73 57.13L124.58 58.81L122.55 60.83L120.74 63.09L119.2 65.55L117.95 68.16L117.06 70.77L116.51 73.43L116.42 76.56L117.03 79.39L117.97 81.42L119.28 83.26L121 84.96L123.04 86.44L123.41 86.52L123.64 86.23L124.99 82.87L126.64 79.84L128.6 77.14L130.86 74.78L133.22 72.89L135.3 71.71L138.27 70.49L142.12 69.21L146.87 67.88L193.51 55.22L293.38 27.79L294.72 27.45L298.28 26.88L301.95 26.75L305.72 27.07L309.59 27.83L311.77 28.52L313.9 29.46L315.98 30.65L318.02 32.11L320 33.81L321.94 35.78L325.66 40.47L325.84 41.05L325.56 41.58L321.64 45.5L321.08 45.78L320.52 45.47ZM61.8405 213.11L52.2905 212.76L51.6905 212.49L51.4505 211.89V92.38L51.3705 92.14L51.1205 92.06H38.3004L37.9505 92.18L37.8405 92.52V212.16L37.6605 212.58L37.2404 212.76H28.0005L27.5705 212.58L27.3905 212.16V145.56L27.1905 144.58L26.6005 143.8L11.4904 130.49L10.8705 130.22L10.6605 130.87L10.8604 282.44L11.1104 287.07L11.8604 291.42L13.1104 295.51L14.8604 299.32L17.0105 302.72L19.6305 305.88L22.7104 308.78L26.2505 311.43L28.4805 312.77L30.8105 313.89L33.3505 314.81L36.0105 315.47L38.7605 315.88L41.6305 316.04H53.8805L63.6005 315.77L63.3905 339.25L63.5504 339.65L63.9505 339.81H105.1L105.29 339.62V325.49L105.16 325.16L104.83 325.02H77.0705L76.5305 324.79L76.3004 324.25V314.68L76.4105 314.35L76.7505 314.24H104.47L104.95 314.04L105.15 313.55V300.88V300.87L104.97 300.47L104.56 300.32L93.0605 300.63L82.8505 300.47L77.6905 299.89L72.7704 298.59L68.5105 296.76L64.4505 294.34L64.0405 294.28L63.7505 294.58L63.7305 294.71L63.6905 305.57L55.9005 305.31L55.2005 305.19L54.6905 304.87L54.3905 304.36L54.2905 303.65V300.9L54.1205 300.34L53.6205 300.05L50.9805 299.27L48.4405 298.27L45.9205 297.03L43.5204 295.59L41.2305 293.94L39.0804 292.11L37.0804 290.12L35.2404 287.97L33.5605 285.67L32.0605 283.23L30.7605 280.69L29.6505 278.04L28.7605 275.36L28.0905 272.61L27.6405 269.81L27.4105 266.96V253.31L27.5405 253.01L27.8405 252.89H37.4205L37.8105 253.02L37.9305 253.41L37.9005 255.42V263.89L38.4005 269.6L38.9005 272.14L39.5504 274.39L40.3805 276.5L41.4505 278.53L43.4305 281.32L46.0905 283.99L49.0804 286.05L51.3004 287.09L53.6805 287.86L56.2205 288.35L58.9105 288.55L59.1605 288.43L59.2005 288.16L59.1505 288.07L57.3505 285.69L55.7805 283.23L54.4405 280.69L53.3304 278.05L51.9505 273.39L51.4904 270.61L51.2104 267.35L51.1005 258.1L51.1104 253.39L51.2305 253.01L51.6104 252.88L61.7605 252.84L61.5005 264.18L61.5504 266.92L61.8805 269.58L62.4805 272.22L63.3405 274.73L64.4705 277.13L65.8304 279.37L67.4205 281.43L69.2205 283.3L70.9604 284.78L72.8405 286.09L74.8604 287.22L77.0005 288.17L79.2404 288.91L81.5705 289.44L83.9005 289.75L86.3004 289.86L104.82 289.69L105.16 289.54L105.3 289.2V92.52L105.12 91.98L104.58 91.8H62.9405L62.3304 92.05L62.0804 92.65L61.8405 213.11ZM370.32 115.88L369.78 115.5L367.17 112.91L364.23 110.99L361.13 109.79L357.73 109.18L141.91 108.74L138.29 107.93L134.76 106.86L131.73 105.72L128.77 104.37L128.03 103.99L128.02 103.97L126.17 102.54L124 101.42L121.99 99.88L121.04 98.7L119.95 98.14L119.64 98.09L118.23 96.59L116.7 95.57L116.09 94.92L115.6 94.93L115.26 95.38V193.44L115.62 194.31L116.5 194.67H375.67L376.55 194.3L376.92 193.42L376.87 137.93V137.66L376.75 131.16L376.25 126.73L375.23 122.94L373.59 119.65L372.14 117.71L370.32 115.88ZM408.9 157.3L407.79 154.01L406.17 151L403.99 148.18L401.39 145.72L398.31 143.56L394.93 141.87L391.34 140.68L387.63 140.02H387.61L387.28 140.14L387.13 140.47L387 149.43L387.08 261.28L387.03 349.17L387.02 350.37L387.19 355.72L387.52 357.58L388.02 359.09L388.73 360.44L390.32 362.36L392.31 363.83L394.72 364.87L397.33 365.4H400.02L402.67 364.86L405.07 363.83L407.21 362.3L407.36 362.16L408.35 360.92L409.06 359.4L409.48 357.57L409.62 355.46L409.52 170.62L409.36 161.9L408.9 157.3ZM421.29 283.74L431.24 276.34L441.68 268.11L446.4 263.89L450.53 259.37L454.06 254.56L456.99 249.45L459.07 244.71L460.7 239.75L461.72 235.34L462.38 230.93L462.68 226.44L462.62 221.99L462.19 217.52L461.4 213.13L460.27 208.84L458.8 204.68L457 200.63L454.87 196.74L452.44 193.05L449.71 189.56L446.71 186.33L443.44 183.34L439.99 180.69L436.3 178.31L432.61 176.35L428.72 174.66L424.75 173.31L420.6 172.25L420.53 172.24L419.99 172.41L419.76 172.93L419.8 283.68L419.99 284.23L420.57 284.22L421.29 283.74ZM147.79 204.88L133.16 204.81L116.92 204.8L116.28 204.87L116.18 204.54L115.9 204.51L115.49 204.73L115.36 205.17V358.93L115.93 367.86L116.54 370.91L117.46 373.08L117.67 373.5L117.7 373.66L117.83 374.37L118.48 375.22L118.98 375.96L119.01 376.2L121.56 379.87L124.58 382.99L128.03 385.56L131.95 387.6L135.42 388.9L137.35 389.76L139.22 390.37L141.02 390.74L142.76 390.85L227.75 390.65H228.96L267 390.47L305.05 390.04L384 389.98L388.46 389.67L392.72 388.72L395.69 387.63L396.72 387.48L397.16 387.15L397.11 386.82L397.76 386.78L398.19 386.58L400.98 384.39L403.4 381.89L405.57 378.93L407.34 375.63L407.38 375.5L407.25 375.04L406.8 374.86L406.69 374.87L405.85 375.18L405.05 375.88L402.07 376.24L398.98 376.36L396.02 376.15L393.21 375.61L390.54 374.73L387.7 373.31L385.15 371.6L382.91 369.61L381 367.35L379.87 365.61L378.9 363.75L378.11 361.75L377.5 359.64L377.26 358.82L376.72 357.64L376.63 357.15L376.87 205.44L376.51 204.58L375.66 204.24H375.64L356.04 204.9L212.55 204.88L207.6 204.45L201.94 204.22L188.5 204.34L177.31 204.3L167.16 204.19L159.92 204.39L147.79 204.88ZM132.19 399.17L132.1 399.16L131.89 399.29L131.88 399.54L135.12 405.56L136.95 408.33L138.92 410.94L141 413.34L143.22 415.58L145.57 417.66L148.07 419.56L151.92 422L156.07 424.07L160.41 425.72L165.03 427L170.59 427.96L176.36 428.32L182.1 428.08L187.99 427.23L193.93 425.77L199.74 423.75L205.53 421.14L211.11 418.03L224.36 409.74L236.81 401.59L237.36 400.97L236.55 400.76L144.5 400.84L140.06 400.63L135.7 400L132.19 399.17Z" fill="black"/>
<path d="M320.52 45.4701L321.08 45.7801L321.64 45.5001L325.56 41.5801L325.84 41.0501L325.66 40.4701L321.94 35.7801L320 33.8101L318.02 32.1101L315.98 30.6501L313.9 29.4601L311.77 28.5201L309.59 27.8301L305.72 27.0701L301.95 26.7501L298.28 26.8801L294.72 27.4501L293.38 27.7901L193.51 55.2201L146.87 67.8801L142.12 69.2101L138.27 70.4901L135.3 71.7101L133.22 72.8901L130.86 74.7801L128.6 77.1401L126.64 79.8401L124.99 82.8701L123.64 86.2301L123.41 86.5201L123.04 86.4401L121 84.9601L119.28 83.2601L117.97 81.4201L117.03 79.3901L116.42 76.5601L116.51 73.4301L117.06 70.7701L117.95 68.1601L119.2 65.5501L120.74 63.0901L122.55 60.8301L124.58 58.8101L126.73 57.1301L129.04 55.7601L131.76 54.7001L135.89 53.6001L137.96 53.0801L287.38 12.0401L291.72 11.1401L296.06 10.8301L298.98 10.9401L301.91 11.3101L304.83 11.9501L307.76 12.8501L311.39 14.3001L315.96 16.6701L320.19 19.4901L324.17 22.8201L327.77 26.5501L331.08 30.7701L333.97 35.3401L336.4 40.2001L338.38 45.3201L338.24 45.9101L330.79 53.3601L330.48 54.0001L330.63 54.6901L332.22 57.2901L336.28 64.3201L337.56 67.1101L338.57 69.9001L338.8 70.6501L339.5 74.5901L339.73 79.9401L339.7 98.0601L339.56 98.4001L339.23 98.5401L144.11 98.5701L142.22 98.4201L140.16 98.0301L138.15 97.4401L136.41 96.6901L135.1 95.9101L134.03 94.9901L133.32 94.0201L132.92 92.9301L132.88 91.7201L133.26 89.6701L133.85 87.7901L134.67 86.0801L135.7 84.5401L137.34 82.8201L139.34 81.3801L141.7 80.2201L144.41 79.3401L168.77 72.9601L192.26 66.5201L248.85 50.9401L296.47 37.8901L297.18 37.7001L300.26 37.2001L303.33 37.1401L306.47 37.5201L309.52 38.3101L312.59 39.5601L315.48 41.1901L318.14 43.1701L320.52 45.4701Z" fill="#44ACF1"/>
<path d="M345.88 35.6992L347.01 37.8392L347.86 40.0592L348.63 43.7592L345.88 35.6992Z" fill="#7D7B77" fill-opacity="0.996"/>
<path d="M349.78 49.1501L349.349 47.8601L348.95 46.0401L348.77 44.1602L349.27 45.6701L349.62 47.3901L349.78 49.1501Z" fill="#7D7B77" fill-opacity="0.996"/>
<path d="M350.53 54.1992L350.94 70.9592L350.97 92.9292L350.79 95.6092L350.3 97.4792L350.04 86.6692L350 75.8592L350.16 65.0292L350.53 54.1992Z" fill="#7D7B77" fill-opacity="0.996"/>
<path d="M102.94 80.9389L104.46 80.8889L104.89 80.6889L105.06 80.2589V79.6289L105.37 79.8689L105.49 80.2589L105.48 80.4389L105.22 80.8789L104.72 81.2589L104.2 81.4189L103.58 81.3289L102.94 80.9389Z" fill="#408F50"/>
<path d="M27.77 81.1996L28.04 116.21L27.92 116.86L27.56 117.41L27.01 117.78L26.37 117.91H26.36H1.29001H1.22L0.640015 118.23L0.480011 118.88L0.829987 121.63L0.950012 124.43L0.929993 134.96L0.820007 154.05L0.75 173.68L0.820007 191.45L0.980011 248.83L0.799988 283.29L0.880005 286.9L1.23001 290.38L1.82001 293.65L2.67999 296.84L4.56 301.62L7.12 306.29L9.17999 309.3L11.43 312.09L13.86 314.66L16.47 317.01L18.82 318.81L21.29 320.45L23.9 321.94L26.64 323.26L32.5 325.44L38.89 326.99L34.41 326.25L30.16 325.13L26.11 323.62L22.29 321.72L18.51 319.32L14.97 316.49L11.67 313.23L8.60999 309.55L5.42001 304.71L2.94 299.58L1.42999 295.12L0.809998 292.24L0.369995 288.69L0.100006 284.47L0.019989 279.59L0 117.21L0.0799866 117.01L0.279999 116.93H26.45H26.46L26.88 116.74L27.05 116.31L26.83 98.7996L27.14 81.4296L27.27 81.0996L27.77 81.1996Z" fill="#7D7B77" fill-opacity="0.996"/>
<path d="M61.76 252.839L61.94 241.749L61.87 224.009L61.84 213.109L62.08 92.6488L62.33 92.0488L62.94 91.7988H104.58L105.12 91.9788L105.3 92.5188V289.199L105.16 289.539L104.82 289.689L86.3 289.859L83.9 289.749L81.57 289.439L79.24 288.909L77 288.169L74.86 287.219L72.84 286.089L70.96 284.779L69.22 283.299L67.42 281.429L65.83 279.369L64.47 277.129L63.34 274.729L62.48 272.219L61.88 269.579L61.55 266.919L61.5 264.179L61.76 252.839Z" fill="#44ACF1"/>
<path d="M61.8401 213.111L61.8701 224.011L51.9001 224.061L51.4802 224.201L51.3502 224.601V241.221L51.4901 241.631L51.9102 241.771L61.9402 241.751L61.7602 252.841L51.6101 252.881L51.2302 253.011L51.1101 253.391L51.1002 258.101L51.2101 267.351L51.4901 270.611L51.9502 273.391L53.3301 278.051L54.4402 280.691L55.7802 283.231L57.3502 285.691L59.1501 288.071L59.2002 288.161L59.1602 288.431L58.9102 288.551L56.2202 288.351L53.6801 287.861L51.3001 287.091L49.0801 286.051L46.0901 283.991L43.4301 281.321L41.4502 278.531L40.3802 276.501L39.5501 274.391L38.9001 272.141L38.4001 269.601L37.9001 263.891V255.421L37.9301 253.411L37.8102 253.021L37.4202 252.891H27.8401L27.5402 253.011L27.4102 253.311V266.961L27.6402 269.811L28.0901 272.611L28.7602 275.361L29.6501 278.041L30.7602 280.691L32.0602 283.231L33.5602 285.671L35.2401 287.971L37.0801 290.121L39.0801 292.111L41.2302 293.941L43.5201 295.591L45.9202 297.031L48.4402 298.271L50.9802 299.271L53.6201 300.051L54.1201 300.341L54.2902 300.901V303.651L54.3902 304.361L54.6902 304.871L55.2002 305.191L55.9001 305.311L63.6902 305.571L63.6002 315.771L53.8802 316.041H41.6302L38.7602 315.881L36.0102 315.471L33.3502 314.811L30.8102 313.891L28.4802 312.771L26.2502 311.431L22.7101 308.781L19.6302 305.881L17.0102 302.721L14.8601 299.321L13.1101 295.511L11.8601 291.421L11.1101 287.071L10.8601 282.441L10.6602 130.871L10.8701 130.221L11.4901 130.491L26.6002 143.801L27.1902 144.581L27.3902 145.561V212.161L27.5702 212.581L28.0002 212.761H37.2401L37.6602 212.581L37.8401 212.161V92.5205L37.9502 92.1805L38.3001 92.0605H51.1201L51.3701 92.1405L51.4502 92.3806V211.891L51.6902 212.491L52.2902 212.761L61.8401 213.111ZM38.0313 224.652L37.8748 224.278L37.4995 224.124L27.8596 224.157L27.4854 224.314L27.3315 224.689L27.3889 241.169L27.5454 241.543L27.9207 241.697L37.5608 241.664L37.935 241.507L38.0889 241.132L38.0313 224.652Z" fill="#FA8F3E"/>
<path d="M116.7 95.5699L116.18 96.2599L116 96.9299L115.95 193.45L116.1 193.81L116.46 193.96H375.69L376 193.65L375.99 129.96L375.72 125.92L375.26 124.18L374.45 122.31L371.5 117.61L370.32 115.88L372.14 117.71L373.59 119.65L375.23 122.94L376.25 126.73L376.75 131.16L376.87 137.66V137.93L376.92 193.42L376.55 194.3L375.67 194.67H116.5L115.62 194.31L115.26 193.44V95.3799L115.6 94.9299L116.09 94.9199L116.7 95.5699Z" fill="#7D7B77" fill-opacity="0.996"/>
<path d="M387.03 126.13L385.53 121.23L383.56 116.77L381.13 112.72L378.229 109.11L376.349 107.22L374.31 105.47L372.12 103.86L369.78 102.4L365.49 100.37L360.81 98.9899L355.74 98.2699L350.27 98.1999L353.979 97.9199L357.56 98.0299L361.02 98.5099L364.359 99.3899L367.89 100.8L371.28 102.67L374.51 105.02L377.59 107.83L379.909 110.4L381.909 113.09L383.609 115.91L385 118.86L386.219 122.41L387.03 126.13Z" fill="#7D7B77" fill-opacity="0.996"/>
<path d="M121.99 99.8799L119.64 98.0898L119.95 98.1398L121.04 98.6998L121.99 99.8799Z" fill="#7D7B77" fill-opacity="0.996"/>
<path d="M128.02 103.97L124 101.42L126.17 102.54L128.02 103.97Z" fill="#7D7B77" fill-opacity="0.996"/>
<path d="M141.91 108.739L138.11 108.239L134.49 107.229L131.56 105.979L128.77 104.369L131.73 105.719L134.76 106.859L138.29 107.929L141.91 108.739Z" fill="#7D7B77" fill-opacity="0.996"/>
<path d="M369.781 115.5L366.43 112.91L362.81 110.9L360.32 109.92L357.73 109.18L361.13 109.79L364.23 110.99L367.17 112.91L369.781 115.5Z" fill="#7D7B77" fill-opacity="0.996"/>
<path d="M387.15 127.459L387.85 128.349L388.64 128.739L388.75 128.759L392.67 129.359L396.44 130.429L400.58 132.239L404.51 134.669L399.26 132.239L396.89 131.229L394.3 130.449L391.5 129.869L388.49 129.519L387.76 129.349L387.28 128.989L387.05 128.349L387.15 127.459Z" fill="#7D7B77" fill-opacity="0.996"/>
<path d="M328.93 130.79L160.01 130.83L159.98 130.37L160.11 130.04L160.45 129.93H328.46L328.78 130.03L328.92 130.34L328.93 130.79Z" fill="#7D7B77" fill-opacity="0.996"/>
<path d="M328.93 130.789L328.9 173.339L328.81 173.599L328.55 173.679L328.28 173.639V173.509L327.76 173.319L318.75 173.119L263.25 173.109L170.75 173.139L164.4 173.239L160.01 173.549V130.829L328.93 130.789ZM318.61 141.159L318.48 140.829L318.15 140.699H170.85L170.52 140.829L170.39 141.159V162.739L170.52 163.069L170.85 163.199H318.15L318.48 163.069L318.61 162.739V141.159Z" fill="black"/>
<path d="M405.21 135.18L404.55 134.74L404.51 134.67L405.03 134.97L405.21 135.18Z" fill="#7D7B77" fill-opacity="0.996"/>
<path d="M406.71 136.08L405.6 135.59L405.21 135.18L406.71 136.08Z" fill="#408F50"/>
<path d="M417.26 149.139L415.42 146.379L413.52 143.549L411.88 141.489L408.74 137.779L411.4 140.199L413.71 142.889L415.67 145.879L417.26 149.139Z" fill="#7D7B77" fill-opacity="0.996"/>
<path d="M387.63 140.02L391.34 140.68L394.93 141.87L398.31 143.56L401.39 145.72L403.99 148.18L406.17 151L407.79 154.01L408.9 157.3L409.36 161.9L409.52 170.62L409.62 355.46L409.48 357.57L409.06 359.4L408.35 360.92L407.36 362.16L407.21 362.3L405.07 363.83L402.67 364.86L400.02 365.4H397.33L394.72 364.87L392.31 363.83L390.32 362.36L388.73 360.44L388.02 359.09L387.52 357.58L387.19 355.72L387.02 350.37L387.03 349.17L387.08 261.28L387 149.43L387.13 140.47L387.28 140.14L387.61 140.02H387.63Z" fill="#44ACF1"/>
<path d="M318.15 140.699H170.85C170.596 140.699 170.39 140.905 170.39 141.159V162.739C170.39 162.993 170.596 163.199 170.85 163.199H318.15C318.404 163.199 318.61 162.993 318.61 162.739V141.159C318.61 140.905 318.404 140.699 318.15 140.699Z" fill="#44ACF1"/>
<path d="M419.44 154.609L419.48 154.679L419.901 155.849L419.951 157.219L419.42 156.399L419.23 155.559L419.44 154.609Z" fill="#408F50"/>
<path d="M422.72 161.799L421.14 161.869L420.31 161.439L420.18 160.709L422.72 161.799Z" fill="#7D7B77" fill-opacity="0.996"/>
<path d="M465.43 193.689L464.42 192.419L462.82 190.149L460.39 186.489L457.61 183.009L454.65 179.769L451.5 176.769L448.17 174.019L444.14 171.169L439.88 168.629L435.37 166.409L430.63 164.499L423.49 161.799L429.98 163.519L436.19 165.949L442.19 169.119L447.79 172.929L453 177.359L457.71 182.329L461.87 187.789L465.43 193.689Z" fill="#7D7B77" fill-opacity="0.996"/>
<path d="M421.29 283.74L420.57 284.22L419.99 284.23L419.8 283.68L419.76 172.93L419.99 172.41L420.53 172.24L420.6 172.25L424.75 173.31L428.72 174.66L432.61 176.35L436.3 178.31L439.99 180.69L443.44 183.34L446.71 186.33L449.71 189.56L452.44 193.05L454.87 196.74L457 200.63L458.8 204.68L460.27 208.84L461.4 213.13L462.19 217.52L462.62 221.99L462.68 226.44L462.38 230.93L461.72 235.34L460.7 239.75L459.07 244.71L456.99 249.45L454.06 254.56L450.53 259.37L446.4 263.89L441.68 268.11L431.24 276.34L421.29 283.74Z" fill="#EA4841"/>
<path d="M328.28 173.639L328.15 173.659L325.5 173.879L169.75 173.919L164.03 173.829L160.01 173.549L164.4 173.239L170.75 173.139L263.25 173.109L318.75 173.119L327.76 173.319L328.28 173.509V173.639Z" fill="#7D7B77" fill-opacity="0.996"/>
<path d="M467.55 198.24L469.82 203.32L471.47 208.55L472.52 214.12L472.92 219.85L472.08 214.75L471 209.71L469.44 203.94L467.55 198.24Z" fill="#EA4841"/>
<path d="M212.55 204.879H147.79L159.92 204.389L167.16 204.189L177.31 204.299L188.5 204.339L201.94 204.219L207.6 204.449L212.55 204.879Z" fill="#408F50"/>
<path d="M376.63 357.15L376.16 356.07L376.01 355.15L376.04 205.33L375.91 205.01L375.59 204.88L356.04 204.9L375.64 204.24H375.66L376.51 204.58L376.87 205.44L376.63 357.15Z" fill="#44ACF1"/>
<path d="M116.28 204.87L116.13 205.07L116.02 205.4L115.95 364.93L116.32 368.42L117.46 373.08L116.54 370.91L115.93 367.86L115.36 358.93V205.17L115.49 204.73L115.9 204.51L116.18 204.54L116.28 204.87Z" fill="#7D7B77" fill-opacity="0.996"/>
<path d="M285.96 220.869L232.6 220.849H232.56L231.9 221.159L231.67 221.859L232.42 230.909L231.62 230.929L231.14 230.679L231 230.209L231.11 221.799L231.27 221.079L231.69 220.479L232.31 220.079L233.03 219.939H285.33L285.78 220.089L285.95 220.529L285.96 220.869Z" fill="#7D7B77" fill-opacity="0.996"/>
<path d="M358.16 230.809L358.45 221.719L358.24 221.059L357.57 220.829H301.55L301.23 220.929L301.12 221.229L300.59 231.249L299.91 226.299L299.99 221.799L300.21 221.069L300.68 220.469L301.32 220.079L302.07 219.939H358.49L358.84 220.059L358.96 220.419V230.439L358.84 230.749L358.54 230.899L358.27 230.859L358.16 230.809Z" fill="#7D7B77" fill-opacity="0.996"/>
<path d="M358.16 230.81L357.94 230.94L357.87 230.97L357.81 230.98L300.59 231.25L301.12 221.23L301.23 220.93L301.55 220.83H357.57L358.24 221.06L358.45 221.72L358.16 230.81Z" fill="black"/>
<path d="M285.96 220.87L285.98 230.59L285.93 230.77L285.66 230.91H232.42L231.67 221.86L231.9 221.16L232.56 220.85H232.6L285.96 220.87Z" fill="black"/>
<path d="M177.77 240.429L174.1 239.569L170.61 239.249L167.31 239.459L164.2 240.219L161.38 241.459L158.73 243.199L156.26 245.429L153.95 248.159L151.61 252.139L150.72 251.649L147.8 249.909L144.98 247.989L142.27 245.889L139.65 243.609L139.39 243.219L139.33 242.809L139.46 240.679L141.2 238.289L143.06 236.059L145.06 233.989L147.18 232.099L149.41 230.379L151.75 228.839L154.2 227.489L156.75 226.329L159.97 225.189L163.33 224.349L166.7 223.829L170.17 223.619L175.69 223.909L178.37 224.349L181 224.979L184.83 226.299L188.54 228.049L192.13 230.229L195.6 232.859L196 233.309L196.15 233.769L196.05 234.249L195.68 234.739L187 243.419L186.01 243.969L184.91 243.779L177.77 240.429Z" fill="#EA4841"/>
<path d="M61.8696 224.01L61.9396 241.75L51.9096 241.77L51.4896 241.63L51.3496 241.22V224.6L51.4796 224.2L51.8996 224.06L61.8696 224.01Z" fill="black"/>
<path d="M37.499 224.123L27.8591 224.156C27.5664 224.157 27.3299 224.395 27.331 224.688L27.3885 241.168C27.3895 241.461 27.6276 241.697 27.9203 241.696L37.5603 241.663C37.853 241.662 38.0894 241.423 38.0884 241.131L38.0309 224.651C38.0299 224.358 37.7917 224.122 37.499 224.123Z" fill="black"/>
<path d="M472.97 230.641L472.69 234.491L472.02 238.501L470.97 242.661L469.54 246.981L466.92 253.221L463.82 259.021L460.25 264.391L456.19 269.321L451.25 274.181L440.52 282.971L424.49 295.111L431.96 288.851L440.8 282.021L444.82 278.861L448.81 275.411L452.76 271.671L456.67 267.641L460.73 262.721L464.29 257.231L467.34 251.171L469.87 244.531L470.72 241.481L471.53 237.631L472.5 232.751L472.97 230.641Z" fill="#7D7B77" fill-opacity="0.996"/>
<path d="M177.77 240.43L174.33 239.89L171.03 239.78L167.86 240.09L164.83 240.82L161.9 242L159.11 243.62L156.46 245.67L153.95 248.16L156.26 245.43L158.73 243.2L161.38 241.46L164.2 240.22L167.31 239.46L170.61 239.25L174.1 239.57L177.77 240.43Z" fill="#FA8F3E"/>
<path d="M139.46 240.68L139.33 242.81L139.39 243.22L139.65 243.61L142.27 245.89L144.98 247.99L147.8 249.91L150.72 251.65L151.61 252.14L150.51 258.38L150.12 262.12L150.21 263.82L150.52 265.64L151.78 269.58L150.55 270.37L147.47 272.57L144.54 275L141.76 277.65L139.12 280.52L137.59 278.23L136.32 275.83L135.25 273.09L134.48 270.21L133.88 266.31L133.62 262.16L133.75 257.95L134.23 253.92L135.07 250.1L136.21 246.64L137.71 243.43L139.46 240.68Z" fill="#FA8F3E"/>
<path d="M232.48 244.13L232.47 244.4L232.21 244.73L232.01 245.08L231.95 245.46V253.56L232.21 254.18L232.83 254.41H232.87L238.23 254.04L294.71 254.12L357.07 254.23L357.63 254.15L358.02 253.92L358.26 253.52L358.34 252.97V245.76L357.97 244.85L357.06 244.46L338.94 244.02L358.52 243.98L358.89 244.1L359.01 244.46V254.42L358.89 254.8L358.51 254.92H231.49L231.11 254.79L230.99 254.43V244.49L231.1 244.12L231.46 243.93L232.25 244L232.48 244.13Z" fill="#7D7B77" fill-opacity="0.996"/>
<path d="M266.08 244.049L258.97 244.359L245.73 244.599L232.47 244.399L232.48 244.129L266.08 244.049Z" fill="#408F50"/>
<path d="M338.94 244.02L357.06 244.46L357.97 244.85L358.34 245.76V252.97L358.26 253.52L358.02 253.92L357.63 254.15L357.07 254.23L294.71 254.12L238.23 254.04L232.87 254.41H232.83L232.21 254.18L231.95 253.56V245.46L232.01 245.08L232.21 244.73L232.47 244.4L245.73 244.6L258.97 244.36L266.08 244.05L338.94 244.02Z" fill="black"/>
<path d="M194.42 289.059L191.58 286.149L188.66 283.509L185.67 281.119L182.59 278.989L184.41 277.749L186.26 276.109L187.91 274.209L189.35 272.039L190.59 269.609L190.63 269.189L190.34 268.899L188.4 268.169L186.51 267.929H171.29L170.38 267.549L170.01 266.639V254.459L170.16 254.109L170.51 253.959H204.2L204.89 254.089L205.48 254.479L205.89 255.059L206.05 255.749L206.12 264.669L205.92 267.889L205.43 270.989L204.67 273.959L203.62 276.819L201.95 280.149L199.86 283.299L197.35 286.269L194.42 289.059Z" fill="#44ACF1"/>
<path d="M232.32 267.92L231.76 272.4L231.9 277.09L232.26 277.79L232.99 278.07H357.14L358.05 277.69L358.43 276.78V269.2L358.1 268.38L357.29 268.04L349.54 267.95L358.52 268.01L358.87 268.13L358.99 268.48V278.44L358.87 278.81L358.5 278.93H231.5L231.12 278.8L231 278.44V268.61L231.13 268.18L231.55 267.96L232.32 267.92Z" fill="#7D7B77" fill-opacity="0.996"/>
<path d="M349.54 267.95L357.29 268.04L358.1 268.38L358.43 269.2V276.78L358.05 277.69L357.14 278.07H232.99L232.26 277.79L231.9 277.09L231.76 272.4L232.32 267.92L349.54 267.95Z" fill="black"/>
<path d="M151.78 269.58L153.21 271.88L154.82 273.94L156.59 275.78L158.54 277.39L160.39 278.61L162.37 279.66L164.49 280.52L166.74 281.21L170.37 281.84L173.93 281.82L176.13 281.49L178.31 280.91L180.46 280.07L182.59 278.99L185.67 281.12L188.66 283.51L191.58 286.15L194.42 289.06L192.3 290.78L189.72 292.21L183.19 294.89L179.53 296.05L171.28 297.41L169.01 297.37L167.94 297.54L165.72 297.42L163.65 296.9L163.57 296.87L156.23 294.46L154.27 293.75L153.06 292.9L143.21 285.41L139.12 280.52L141.76 277.65L144.54 275L147.47 272.57L150.55 270.37L151.78 269.58Z" fill="#408F50"/>
<path d="M153.06 292.9L150.33 291.45L147.8 289.74L145.4 287.71L143.21 285.41L153.06 292.9Z" fill="#7D7B77" fill-opacity="0.996"/>
<path d="M232.64 291.939L232.1 293.939L231.8 296.199L231.74 298.729L231.92 301.509L232.18 301.999L232.69 302.189L284.99 302.079L285.6 301.899L285.92 301.469L285.95 302.379L285.74 302.789L285.3 302.929H231.5L231.15 302.789L231.01 302.439V292.629L231.13 292.219L231.49 292.009L232.64 291.939Z" fill="#7D7B77" fill-opacity="0.996"/>
<path d="M285.92 301.469L285.6 301.899L284.99 302.079L232.69 302.189L232.18 301.999L231.92 301.509L231.74 298.729L231.8 296.199L232.1 293.939L232.64 291.939L285.26 291.879L285.76 292.049L285.93 292.549L285.92 301.469Z" fill="black"/>
<path d="M301.11 291.98L301.02 302.2L300.3 301.76L300.29 301.75L300.03 301.02V292.54L300.16 292.12L300.57 291.92H300.58L301.11 291.98Z" fill="#7D7B77" fill-opacity="0.996"/>
<path d="M301.97 292.259L316.37 292.579L330.74 292.329L336.13 292.089L358.28 291.959L358.65 300.999V301.019L358.35 301.769L357.61 302.079L305.25 302.129L303.59 302.279L301.5 302.889L301.01 302.299L301.02 302.199L301.11 291.979L301.99 292.109L301.97 292.259Z" fill="black"/>
<path d="M336.13 292.09L330.74 292.33L316.37 292.58L301.97 292.26L336.13 292.09Z" fill="#408F50"/>
<path d="M301.5 302.889L303.59 302.279L305.25 302.129L357.61 302.079L358.35 301.769L358.65 301.019V300.999L358.28 291.959L358.74 294.379L359.01 296.929L358.94 302.379L358.78 302.759L358.4 302.879L301.5 302.889Z" fill="#7D7B77" fill-opacity="0.996"/>
<path d="M189.72 292.209L187.03 293.769L184.23 295.069L181.47 296.059L178.63 296.809L175.68 297.329L172.64 297.609L171.28 297.409L179.53 296.049L183.19 294.889L189.72 292.209Z" fill="#7D7B77" fill-opacity="0.996"/>
<path d="M63.5996 315.769L63.6896 305.569L63.7296 294.709L63.7496 294.579L64.0396 294.279L64.4496 294.339L68.5096 296.759L72.7696 298.589L77.6896 299.889L82.8496 300.469L93.0596 300.629L104.56 300.319L104.97 300.469L105.15 300.869V300.879V313.549L104.95 314.039L104.47 314.239H76.7496L76.4096 314.349L76.2996 314.679V324.249L76.5296 324.789L77.0696 325.019H104.83L105.16 325.159L105.29 325.489V339.619L105.28 339.679L105.1 339.809H63.9496L63.5496 339.649L63.3896 339.249L63.5996 315.769Z" fill="#177F6F"/>
<path d="M163.57 296.869L161.39 296.559L158.76 295.749L156.23 294.459L163.57 296.869Z" fill="#44ACF1"/>
<path d="M422.75 296.709L420.41 299.269L420.42 298.659L420.65 298.099L421.12 297.589L422.75 296.709Z" fill="#7D7B77" fill-opacity="0.996"/>
<path d="M171.28 297.409L172.64 297.609L172.09 297.709L170.05 297.819L167.94 297.539L169.01 297.369L171.28 297.409Z" fill="#44ACF1"/>
<path d="M180.47 316.229L180.49 316.959L180.98 318.139L180.92 325.499L180.61 326.039L180.1 326.349L179.37 326.449L132.06 325.949L132.02 324.639L132.26 324.019L132.5 320.919L132.17 318.659L132.02 317.919L132.03 316.539L132.21 316.169L132.61 316.039L180.47 316.229Z" fill="black"/>
<path d="M285.42 315.93L285.53 324.86L285.23 325.79L284.31 326.1H195.64L194.98 325.82L194.71 325.16L194.79 316.21L285.42 315.93Z" fill="black"/>
<path d="M194.79 316.21L194.71 325.16L194.98 325.82L195.64 326.1H284.31L285.23 325.79L285.53 324.86L285.42 315.93L285.93 326.44L285.83 326.81L285.47 326.93H196.17L195.34 326.77L194.64 326.3L194.17 325.6L194.01 324.77V316.77L194.14 316.41L194.6 316.11L194.79 316.21Z" fill="#7D7B77" fill-opacity="0.996"/>
<path d="M301.28 315.93L300.92 324.87L301.23 325.72L302.05 326.09H302.07L356.74 326.3L357.77 326.15L358.46 325.7L358.75 325.17L358.85 324.47H358.95L358.92 326.46L358.79 326.81L358.46 326.92H300.49L300.12 326.8L299.99 326.42V316.62L300.12 316.18L300.55 315.95L301.28 315.93Z" fill="#7D7B77" fill-opacity="0.996"/>
<path d="M350.96 316.05L357.24 316.11L357.87 316.14L358.35 316.37L358.68 316.82L358.84 317.5L358.87 321.39L358.85 324.47L358.75 325.17L358.46 325.7L357.77 326.15L356.74 326.3L302.07 326.09H302.05L301.23 325.72L300.92 324.87L301.28 315.93L350.96 316.05Z" fill="black"/>
<path d="M358.84 317.499L358.68 316.819L358.35 316.369L357.87 316.139L357.24 316.109L350.96 316.049L358.37 315.959L358.81 316.099L359 316.499L358.84 317.499Z" fill="#408F50"/>
<path d="M180.98 318.141L180.49 316.961L180.47 316.23L180.87 316.31L181.13 316.93L180.98 318.141Z" fill="#7D7B77" fill-opacity="0.996"/>
<path d="M132.26 324.02L131.97 321.39L132.17 318.66L132.5 320.92L132.26 324.02Z" fill="#408F50"/>
<path d="M358.87 321.391L358.95 324.471H358.85L358.87 321.391Z" fill="#408F50"/>
<path d="M180.92 325.5L180.9 326.33L180.62 326.79L180.13 326.93H132.6L132.2 326.81L131.99 326.49L131.97 326.12L132.06 325.95L179.37 326.45L180.1 326.35L180.61 326.04L180.92 325.5Z" fill="#7D7B77" fill-opacity="0.996"/>
<path d="M50.3897 327.209L49.0497 327.629L47.1897 327.949L45.2597 327.989L43.2497 327.739L41.1797 327.209H50.3897Z" fill="#7D7B77" fill-opacity="0.996"/>
<path d="M419.94 335.219L420.1 368.689L419.961 371.369L419.3 374.959L418.081 378.489L416.3 381.949L413.98 385.359L416.031 381.399L418.3 376.239L418.961 374.099L419.23 372.029L419.43 369.569L419.651 366.139L419.56 355.949L419.94 335.219Z" fill="#408F50"/>
<path d="M156.26 339.479L148.41 339.899L141.62 339.839L134.82 339.389L140.81 338.939L146.8 338.859L151.53 339.059L156.26 339.479Z" fill="#7D7B77" fill-opacity="0.996"/>
<path d="M285.33 339.749L279.64 339.679L280.97 339.179L282.19 338.939H283.32L284.35 339.199L285.33 339.749Z" fill="#7D7B77" fill-opacity="0.996"/>
<path d="M340.22 339.529L322.76 339.51L327.08 339.149L331.4 339.02L335.81 339.149L340.22 339.529Z" fill="#7D7B77" fill-opacity="0.996"/>
<path d="M133.93 339.559L133.22 339.849L132.95 340.049L132.65 340.449L132.55 340.949V348.799L132.66 349.339L132.97 349.799L133.42 350.099L133.96 350.199L285.69 349.999L285.9 349.719L285.92 350.259L285.77 350.759L285.27 350.929H134.27L133.41 350.759L132.69 350.269L132.2 349.549L132.03 348.689V341.049L132.12 340.539L132.28 340.219L132.97 339.399L133.53 339.199L133.93 339.559Z" fill="#7D7B77" fill-opacity="0.996"/>
<path d="M301.38 339.71L300.54 349.93L299.81 345.05L299.8 343.08L300.04 341.43L300.54 339.84L301.01 339.32L301.38 339.71Z" fill="#7D7B77" fill-opacity="0.996"/>
<path d="M105.1 350.599L53.6598 350.939L53.2398 350.769L53.0698 350.349L53.0498 339.449L53.4298 343.989L53.0898 348.679L53.1198 349.209L53.3598 349.669L53.7698 350.009L54.2698 350.149H54.3798L79.7198 350.019L105.1 350.599Z" fill="#7D7B77" fill-opacity="0.996"/>
<path d="M170.8 339.601L180.44 339.551L279.64 339.681L285.33 339.751L285.63 340.241L285.96 341.681L285.95 348.711L285.69 350.001L133.96 350.201L133.42 350.101L132.97 349.801L132.66 349.341L132.55 348.801V340.951L132.65 340.451L132.95 340.051L133.22 339.851L133.93 339.561L134.74 339.681L134.82 339.391L141.62 339.841L148.41 339.901L156.26 339.481L170.8 339.601Z" fill="black"/>
<path d="M322.76 339.51L340.22 339.53L349.31 339.88L358.44 340.02L358.78 340.13L358.92 340.44L358.87 340.96L358.74 348.49L358.61 349.12L358.25 349.65L357.72 350L357.09 350.13L302.96 350.4L300.54 349.93L301.38 339.71L322.76 339.51Z" fill="black"/>
<path d="M358.87 340.959L358.92 348.879L358.77 349.649L358.34 350.299L357.69 350.739L356.92 350.899H304.77L302.96 350.399L357.09 350.129L357.72 349.999L358.25 349.649L358.61 349.119L358.74 348.489L358.87 340.959Z" fill="#7D7B77" fill-opacity="0.996"/>
<path d="M285.95 348.709L285.9 349.719L285.69 349.999L285.95 348.709Z" fill="#408F50"/>
<path d="M390.54 374.731L390.52 375.011L387.72 373.711L385.22 372.161L383.04 370.371L381.16 368.331L379.58 366.031L378.32 363.481L377.36 360.691L376.72 357.641L377.26 358.821L377.5 359.641L378.11 361.751L378.9 363.751L379.87 365.611L381 367.351L382.91 369.611L385.15 371.601L387.7 373.311L390.54 374.731Z" fill="#44ACF1"/>
<path d="M358.69 364.061L358.65 373.161L358.4 373.781L357.78 374.031H133.32L132.85 373.891L132.57 373.581L132.47 373.181V364.961L132.6 364.221L358.69 364.061Z" fill="black"/>
<path d="M132.1 364.391L132.47 364.961V373.181L132.71 373.771L133.29 374.031H133.32H357.78L358.4 373.781L358.65 373.161L358.69 364.061L358.8 374.401L358.67 374.801L358.28 374.931H134.47L133.46 374.791L132.74 374.351L132.3 373.631L132.15 372.621L132.1 364.391Z" fill="#7D7B77" fill-opacity="0.996"/>
<path d="M132.6 364.219L132.47 364.959L132.1 364.389L132.37 364.199L132.6 364.219Z" fill="#408F50"/>
<path d="M105.53 370.909L105.16 369.449L105.11 367.859L105.45 368.699L105.62 369.759L105.53 370.909Z" fill="#7D7B77" fill-opacity="0.996"/>
<path d="M106.64 375.13L106.15 374L105.78 371.83L106.29 373L106.58 374.21L106.64 375.13Z" fill="#7D7B77" fill-opacity="0.996"/>
<path d="M118.48 375.22L117.83 374.37L117.7 373.66L117.92 373.91L118.48 375.22Z" fill="#408F50"/>
<path d="M402.07 376.24L400.02 376.84L398.45 376.97L396.719 376.831L394.799 376.4L392.24 375.581L390.52 375.01L390.539 374.73L393.21 375.61L396.02 376.15L398.979 376.36L402.07 376.24Z" fill="#7D7B77" fill-opacity="0.996"/>
<path d="M397.11 386.819L399.93 384.589L402.33 382.259L404.31 379.839L405.88 377.309L406.01 376.449L405.68 376.099L405.05 375.879L405.85 375.179L406.69 374.869L406.8 374.859L407.25 375.039L407.38 375.499L407.34 375.629L405.57 378.929L403.4 381.889L400.98 384.389L398.19 386.579L397.76 386.779L397.11 386.819Z" fill="#7D7B77" fill-opacity="0.996"/>
<path d="M111.56 384.74L109.82 382.419L108.4 379.94L107.49 377.779L106.79 375.52L111.56 384.74Z" fill="#7D7B77" fill-opacity="0.996"/>
<path d="M131.95 387.599L128.03 385.559L124.58 382.989L121.56 379.869L119.01 376.199L121.71 379.329L124.65 382.199L128.16 385.059L131.95 387.599Z" fill="#7D7B77" fill-opacity="0.996"/>
<path d="M413.98 385.359L411.84 388.439L409.48 391.199L406.9 393.609L404.1 395.699L401.11 397.439L397.9 398.849L394.47 399.929L390.83 400.689L394.23 399.699L397.47 398.469L400.54 396.989L403.46 395.269L406.36 393.189L409.07 390.849L411.61 388.239L413.98 385.359Z" fill="#7D7B77" fill-opacity="0.996"/>
<path d="M397.11 386.82L397.16 387.15L396.72 387.48L395.69 387.63L397.11 386.82Z" fill="#408F50"/>
<path d="M305.05 390.04L267 390.47L228.96 390.65H227.75L142.76 390.85L141.02 390.74L139.22 390.37L137.35 389.76L135.42 388.9L139.34 389.67L142.5 389.92L305.05 390.04Z" fill="#7D7B77" fill-opacity="0.996"/>
<path d="M119.62 395.22L118.52 392.18L119.24 392.61L119.71 393.65L119.62 395.22Z" fill="#7D7B77" fill-opacity="0.996"/>
<path d="M128.57 414.41L125.74 410.71L123.42 406.75L122.2 404.09L121.19 401.33L120.38 398.47L119.78 395.5L123.15 404.79L125.27 408.9L128.57 414.41Z" fill="#7D7B77" fill-opacity="0.996"/>
<path d="M132.19 399.17L135.7 400L140.06 400.63L144.5 400.84L236.55 400.76L237.36 400.97L236.81 401.59L224.36 409.74L211.11 418.03L205.53 421.14L199.74 423.75L193.93 425.77L187.99 427.23L182.1 428.08L176.36 428.32L170.59 427.96L165.03 427L160.41 425.72L156.07 424.07L151.92 422L148.07 419.56L145.57 417.66L143.22 415.58L141 413.34L138.92 410.94L136.95 408.33L135.12 405.56L131.88 399.54L131.89 399.29L132.1 399.16L132.19 399.17Z" fill="#EA4841"/>
<path d="M191.82 437.23L187.64 438.11L183.26 438.73L178.84 439.06L174.37 439.11L170.09 438.87L165.9 438.34L161.99 437.55L158.27 436.47L154.65 435.13L151.14 433.6L147.83 431.93L144.64 430.07L141.66 428.08L138.81 425.91L136.17 423.61L133.66 421.13L131.24 418.4L128.97 415.46L128.57 414.41L132.56 419.38L135.05 422.12L139.75 426.14L144.67 429.6L149.8 432.48L155.14 434.79L161.19 436.66L167.49 437.85L174.05 438.36L180.86 438.2L191.82 437.23Z" fill="#7D7B77" fill-opacity="0.996"/>
<path d="M230.27 418.23L225.99 420.92L227.27 419.82L228.67 418.93L230.27 418.23Z" fill="#408F50"/>
<path d="M225.99 420.92L225.76 421.18L225.05 421.73L224.2 422.13L224.12 421.85L224.35 421.65L225.1 421.19L225.99 420.92Z" fill="#408F50"/>
<path d="M224.12 421.85L224.2 422.13L219.25 425.4L214.04 428.47L208.56 431.34L202.83 434.02L197.22 436.07L194.5 436.76L191.82 437.23L201.86 433.67L206.79 431.63L211.51 429.21L224.12 421.85Z" fill="#7D7B77" fill-opacity="0.996"/>
<path d="M77.5195 473.99L72.5595 471.48L70.4196 470.67L68.4995 470.15L66.2695 469.81L63.7596 469.67L61.1895 469.72L58.5595 469.99L56.2296 470.41L53.9895 471.03L52.0595 471.79L50.3295 472.73L46.5195 474.92L49.2395 472.88L52.1595 471.25L55.3095 469.99L58.5795 469.19L61.8995 468.83L65.2296 468.94L68.4295 469.49L71.5495 470.5L74.6295 472L77.5195 473.99Z" fill="#7D7B77" fill-opacity="0.996"/>
<path d="M77.5197 473.99L78.6297 474.74L79.5297 475.64L80.7997 477.48L81.0497 478.35V479.18L81.0197 479.36L80.5697 479.72L79.4097 480.34L78.5497 481.18L78.2297 481.7L76.0797 483.6L74.4997 482.17L72.2197 480.47L70.1597 479.22L68.0097 478.3L65.7097 477.67L63.3797 477.37L61.4997 477.38L59.6397 477.59L57.7997 478.02L56.0197 478.65L54.3497 479.46L52.7497 480.46L51.2497 481.64L49.8497 483.01L48.3097 484.89L47.0697 486.83L46.1297 488.85L45.4897 490.93L45.1697 492.88L45.0997 494.88L45.3197 496.26V499.47L45.9797 502.44L47.3797 505.27L49.4997 507.85L52.0597 510.4L53.5397 511.95L54.5597 512.52L55.7097 512.91L58.5997 513.89L61.6797 514.72L64.7297 514.9L66.6297 514.69L68.5297 514.22L70.4097 513.49L72.2797 512.51L74.5197 510.84L76.2197 508.82L77.3697 506.49L77.7297 505.77L77.7597 505.75L78.2797 504.95L78.9797 502.91L79.0597 501.73L78.7797 501.16L78.4297 501.11L77.9297 501.29L63.0997 500.89L62.3397 500.61L62.0897 499.85V493.98L62.3497 493.19L63.1397 492.93L87.5297 492.96L87.4597 493.27L87.0497 496.96L87.2897 500.79L87.3497 502.07L86.7997 503.61L85.4397 507.01L84.5797 509.31L83.7997 510.89L82.3397 513.11L80.7197 515.09L78.9397 516.84L76.9897 518.34L74.3697 519.86L71.4897 521.02L68.3697 521.82L64.9997 522.25L60.6997 522.24L56.5397 521.6L54.2097 520.94L51.9397 520.07L49.7097 518.98L47.5297 517.69L44.8097 515.49L42.7397 512.91L40.1197 508.61L38.2397 504.31L37.1097 500.01L36.7197 495.71L36.9797 491.97L37.8197 488.26L39.2797 484.53L41.3697 480.76L44.0797 476.96L46.5197 474.92L50.3297 472.73L52.0597 471.79L53.9897 471.03L56.2297 470.41L58.5597 469.99L61.1897 469.72L63.7597 469.67L66.2697 469.81L68.4997 470.15L70.4197 470.67L72.5597 471.48L77.5197 473.99Z" fill="black"/>
<path d="M216.3 470.5L214.12 470.86L211.97 470.48L213.06 470.18L214.15 470.08L216.3 470.5Z" fill="#7D7B77" fill-opacity="0.996"/>
<path d="M211.97 470.48L214.12 470.86L216.3 470.5L217.31 470.68L217.66 470.961L217.78 471.391L217.72 507.47L217.54 519.43L217.41 520.081L217.05 520.641L216.51 521.03L215.87 521.201L210.21 521.62L210.26 472.12L210.37 471.391L210.68 470.88L211.22 470.57L211.97 470.48Z" fill="black"/>
<path d="M81.0203 479.361L81.0503 479.181V478.351L80.8003 477.481L79.5303 475.641L80.6003 476.201L81.4903 476.911L81.8703 477.391L82.0103 477.881L81.9903 478.141L81.9603 478.261L81.6303 478.851L81.0203 479.361Z" fill="#7D7B77" fill-opacity="0.996"/>
<path d="M315.94 476.219L307.47 476.529L306.89 476.789L306.65 477.379V502.229L306.7 502.689L306.87 503.159L307.04 503.659L306.98 504.009L306.31 504.539L305.88 504.409L305.43 503.959L300.66 497.399L296.1 490.769L291.75 484.089L287.61 477.339L287.15 476.889L286.53 476.709L277.16 476.399L280.34 475.989L284.5 475.959L286.17 476.249L287.48 476.959L288.29 477.859L293.94 486.319L301.11 496.979L305 502.369L305.45 502.839L305.77 502.939L305.99 502.189L306.17 476.709L306.31 476.279L306.75 476.139L315.94 476.219Z" fill="#7D7B77" fill-opacity="0.996"/>
<path d="M315.69 509.209L315.06 520.649L310.96 521.039L307.91 521.009L305.9 520.559L305.29 520.169L304.94 519.679L304.86 519.349L287.96 492.939L287.27 492.519L286.52 492.799L286.39 492.979L286.45 493.359L286.93 493.969L286.94 516.359L286.39 520.899L277.79 520.809L277.29 520.599L277.08 520.089L277.16 476.399L286.53 476.709L287.15 476.889L287.61 477.339L291.75 484.089L296.1 490.769L300.66 497.399L305.43 503.959L305.88 504.409L306.31 504.539L306.98 504.009L307.04 503.659L306.87 503.159L306.7 502.689L306.65 502.229V477.379L306.89 476.789L307.47 476.529L315.94 476.219L315.69 509.209Z" fill="black"/>
<path d="M44.0796 476.959L41.3696 480.759L39.2796 484.529L37.8196 488.259L36.9796 491.969L36.7196 495.709L37.1096 500.009L38.2396 504.309L40.1196 508.609L42.7396 512.909L40.5796 510.059L38.8296 507.119L37.5096 504.089L36.6196 500.969L36.1796 498.229L36.0596 495.419L36.3696 491.609L37.2296 487.969L38.3696 485.039L39.8896 482.219L41.7896 479.529L44.0796 476.959Z" fill="#7D7B77" fill-opacity="0.996"/>
<path d="M76.0796 483.599L71.5796 480.789L68.9596 479.199L66.9296 478.359L65.1496 478.009L63.3496 477.879L61.4396 477.979L59.5396 478.299L55.7896 479.549L53.9296 480.489L52.1896 481.599L50.1296 483.259L48.5596 484.979L47.4696 486.749L46.8596 488.579L46.0896 491.809L45.0996 494.879L45.1696 492.879L45.4896 490.929L46.1296 488.849L47.0696 486.829L48.3096 484.889L49.8496 483.009L51.2496 481.639L52.7496 480.459L54.3496 479.459L56.0196 478.649L57.7996 478.019L59.6396 477.589L61.4996 477.379L63.3796 477.369L65.7096 477.669L68.0096 478.299L70.1596 479.219L72.2196 480.469L74.4996 482.169L76.0796 483.599Z" fill="#7D7B77" fill-opacity="0.996"/>
<path d="M80.5705 479.719L80.0305 480.349L78.2305 481.699L78.5504 481.179L79.4105 480.339L80.5705 479.719Z" fill="#408F50"/>
<path d="M118.85 490.099L115.72 488.699L112.65 487.799L109.64 487.389L106.67 487.469L103.81 488.029L101 489.069L98.24 490.589L95.54 492.579L98.03 490.379L100.87 488.669L103.98 487.519L107.25 486.959L110.31 486.989L113.32 487.529L116.2 488.579L118.85 490.099Z" fill="#7D7B77" fill-opacity="0.996"/>
<path d="M149.58 486.829L153.48 488.189L155.69 489.059L157.92 490.409L160.18 492.229L162.46 494.529L164.06 497.329L165.13 500.359L164.91 501.649L164.99 503.259L165.07 506.579L164.54 509.749L163.92 511.609L163.1 513.369L162.09 515.019L160.9 516.539L159.54 517.909L158.04 519.119L156.39 520.159L154.62 520.999L151.67 521.889L148.5 522.229L144.44 522.549L143.79 522.409L140.54 520.969L137.57 519.129L134.94 516.919L132.59 514.319L132.55 513.579L132.27 513.139L131.84 512.999L131.6 512.499L130.5 507.179L130.29 504.989L130.55 502.349L131.23 499.569L132.3 496.869L133.62 493.609L135.85 491.219L146.19 486.779L149.58 486.829ZM153.06 512.839L153.58 512.389L153.7 512.349V512.359L153.9 512.499L153.98 512.509L154.05 512.479L154.93 511.759L155.87 510.659L156.58 509.429L157.1 507.989L157.4 506.469L157.47 504.789L157.32 503.119L156.92 501.399L156.3 499.789L156.2 499.669L156.15 499.659H156.05L155.79 499.249L155.82 499.179L154.93 497.819L153.26 496.249L151.11 495.069L148.72 494.419H146.24L144.48 494.869L142.87 495.649L141.36 496.799L140.09 498.239L139.12 499.869L138.45 501.679L138.14 503.529L138.16 505.469L138.43 507.089L138.9 508.589L139.59 510.049L140.46 511.349L141.5 512.459L142.67 513.389L143.97 514.109L145.37 514.599L147.26 514.889L149.25 514.759L151.18 514.219L153.13 513.259L153.19 513.189L153.18 513.089L153.06 512.839Z" fill="black"/>
<path d="M238 486.891L236.2 487.571L235.7 487.691L233.41 488.401L228.7 490.741L231.07 488.821L233.66 487.551L235.76 487.031L238 486.891Z" fill="#7D7B77" fill-opacity="0.996"/>
<path d="M240.63 486.98L243.43 487.82L245.93 488.95L248.12 490.36L250 492.06L251.47 493.88L252.67 495.95L253.62 498.26L254.31 500.81L253.32 501.15L251.93 501.49L250.67 502.06L249.54 502.87L241.26 506.23L240.05 506.34L238.95 506.7L238.08 507.23L237.3 507.96L234.3 509.23L232.76 509.59L232.18 510.1L232.28 510.45L232.68 510.85L234.41 512.95L235.93 513.93L237.43 514.61L238.92 514.99L240.4 515.08L242.07 514.82L243.72 514.17L245.35 513.14L246.97 511.72L247.35 511.11L248.45 510.24L253.53 513.73L253.76 514.08L253.68 514.49L252.36 516.26L250.92 517.8L249.35 519.1L247.65 520.17L245.71 521.05L243.63 521.66L241.4 522.01L239.03 522.1L235.43 521.64L233.8 521.14L232.28 520.44L230.01 519.04L228.05 517.46L226.39 515.7L225.05 513.75L223.9 511.34L223.15 508.69L222.8 505.82L222.84 502.71L222.95 502.35L223.06 501.4L222.95 500.39L223.02 500.22L226.49 493L227.51 491.67L228.7 490.74L233.41 488.4L235.7 487.69L236.2 487.57L238 486.89L239.7 486.75L240.63 486.98ZM239.31 499.73L239.46 499.58L241.36 499.25L242.84 498.74L243.92 498.03L244.59 497.13L244.62 497.06L242.96 495.7L241.56 494.64L240.15 494.27L239.72 494.29L237.72 494.66L235.94 495.27L234.4 496.11L233.08 497.18L232.06 498.39L231.24 499.79L230.61 501.4L230.19 503.21L230.34 503.7L230.83 503.87L231 503.82L239.31 499.73Z" fill="black"/>
<path d="M146.19 486.779L135.85 491.219L138.64 489.179L141.76 487.729L143.95 487.109L146.19 486.779Z" fill="#7D7B77" fill-opacity="0.996"/>
<path d="M162.46 494.53L160.18 492.23L157.92 490.41L155.69 489.06L153.48 488.19L149.58 486.83L151.81 487.22L153.97 487.88L156.03 488.81L157.96 489.99L160.41 492.06L162.46 494.53Z" fill="#7D7B77" fill-opacity="0.996"/>
<path d="M188.75 487.38H186.11L183.61 487.67L181.26 488.26L179.05 489.15L177.04 490.3L175.16 491.72L173.42 493.43L171.81 495.42L173.27 493.14L174.9 491.23L176.71 489.68L178.69 488.48L180.93 487.63L183.35 487.16L185.95 487.08L188.75 487.38Z" fill="#7D7B77" fill-opacity="0.996"/>
<path d="M240.63 486.98L243.6 487.3L246.2 488.29L247.53 489.16L249.93 491.24L251.93 493.461L253.54 495.85L254.76 498.38L255.12 499.37L255.25 500.06L255.1 500.53L254.31 500.81L253.62 498.26L252.67 495.951L251.47 493.88L250 492.06L248.12 490.36L245.93 488.951L243.43 487.82L240.63 486.98Z" fill="#7D7B77" fill-opacity="0.996"/>
<path d="M435.96 497.16L435.05 494.97L433.82 493.08L432.47 491.62L430.92 490.4L429.12 489.38L427.18 488.61L425 488.06L422.74 487.78L420.34 487.77L417.96 488.02L414.88 488.87L412.26 490.33L410.04 492.46L408.3 495.24L408.61 493.95L409.14 492.77L410.44 491.1L412.3 489.75L414.73 488.57L417.16 487.75L419.57 487.28L421.97 487.17L424.55 487.44L427.11 488.13L429.66 489.24L432.2 490.75L434.17 492.48L435.41 494.5L435.8 495.78L435.96 497.16Z" fill="#7D7B77" fill-opacity="0.996"/>
<path d="M118.85 490.101L120.66 491.531L122.27 493.191L123.65 495.031L124.79 497.041L125.56 499.401L126.05 501.731L126.27 504.051L126.22 506.341L125.89 508.601L125.29 510.851L124.42 513.071L123.27 515.271L121.24 517.651L118.83 519.641L116.05 520.921L113.29 521.781L110.56 522.241L107.85 522.301L104.75 521.851L101.68 520.861L98.6497 519.331L95.6397 517.261L90.9297 507.881L90.6797 504.641L91.0097 501.411L95.5397 492.581L98.2397 490.591L101 489.071L103.81 488.031L106.67 487.471L109.64 487.391L112.65 487.801L115.72 488.701L118.85 490.101ZM106.01 495.251L104.56 495.671L103.27 496.231L102.16 496.961L101.22 497.831L100.41 498.941L99.7897 500.211L99.3597 501.661L99.1297 503.291L99.0697 505.981L99.2497 507.651L99.6397 509.151L100.24 510.471L101.04 511.621L102 512.571L103.16 513.351L104.5 513.971L106.04 514.431L110.03 514.631L111.37 514.511L112.63 514.171L113.88 513.561L115.03 512.701L116.09 511.601L117.06 510.241L117.98 508.191L118.17 506.221L118.05 505.491L117.63 502.121L117.56 501.071L117.26 500.141L116.72 499.331L115.94 498.631L114.03 496.701L113.23 496.001L112.34 495.531L110.94 495.291L108.47 494.941L106.01 495.251Z" fill="black"/>
<path d="M188.75 487.379L190.1 487.709L191.18 488.269L192.83 489.329L194.35 489.839L194.53 489.819L194.69 489.559L194.72 489.019L194.82 488.619L195.2 488.459L202.66 487.859L202.48 499.679L202.63 514.679L202.43 519.629L201.66 525.119L201.23 526.659L200.39 528.609L199.35 531.149L197.1 533.639L191.58 536.809L190.79 537.199L190.02 537.279L189.68 537.219L186.73 536.959L183.59 537.309L178.12 535.719L175.15 533.529L172.6 530.979L171.24 529.229L170.04 527.349L170.12 526.949L172.51 525.169L174.31 524.489L175.75 524.239L176.69 524.389L177.43 524.839L178.05 525.579L178.76 527.019L179.74 528.139L181.28 529.079L183.2 529.579L185.98 529.969L188.87 529.589L191.08 528.619L192.8 527.199L193.77 525.819L194.46 524.169L194.85 522.269L194.96 520.109L194.78 519.079L195.08 518.689L195.1 518.549L194.93 518.219L194.55 518.169L193.34 518.929L192.33 520.259L190.39 521.199L188.45 521.789L186.39 522.089L184.22 522.099L181.94 521.819L181.03 521.199L180.12 521.009L179.44 521.149L177.87 520.469L176.48 519.649L175.26 518.689L174.22 517.579L173.64 516.799L171.91 514.239L170.61 511.609L169.75 508.899L169.34 506.129L169.47 502.729L170.29 499.259L171.38 495.929L171.54 495.559L171.81 495.419L173.42 493.429L175.16 491.719L177.04 490.299L179.05 489.149L181.26 488.259L183.61 487.669L186.11 487.379H188.75ZM190.11 513.919L192.2 512.459L193.28 511.259L194.16 509.869L194.83 508.339L195.25 506.699L195.42 505.009L195.33 503.309L194.99 501.639L194.4 500.059L194.26 499.759L194.02 499.319L192.45 497.209L190.98 495.969L189.32 495.079L187.54 494.569L185.7 494.459L183.4 494.909L182.19 495.439L181.06 496.159L179.14 498.079L177.79 500.529L177.11 503.309L177.04 504.839L177.19 506.359L177.53 507.839L178.07 509.249L178.8 510.559L179.69 511.739L180.73 512.759L181.89 513.589L184.16 514.559L186.58 514.829L188.39 514.569L190.11 513.919Z" fill="black"/>
<path d="M341 487.891L342.29 488.581L343.72 489.111L346.44 490.201L348.14 491.401L349.62 492.721L350.9 494.161L351.96 495.731L353.04 497.991L353.75 500.471L354.1 503.161L354.07 506.071L353.76 506.731L353.07 507.011L331.65 506.871L330.95 506.951L330.42 507.201L330.02 507.821L330.16 508.301L330.67 508.801L331.01 510.211L331.97 511.591L333.52 512.711L334.47 513.601L335.51 513.881L336.77 513.731L338.06 513.611L339.18 513.771L340.99 513.671L342.41 513.041L343.33 512.101L343.97 510.771L344.34 510.531L345.53 510.131L346.96 510.141L347.58 510.321L349.53 510.651H351.57L352.35 510.691L352.85 510.951L352.97 511.081L353.25 511.661L353.32 512.401L353.26 512.771L352.14 514.451L350.9 515.941L349.53 517.241L348.04 518.351L346.16 519.411L344.11 520.211L341.89 520.761L339.5 521.061L335.7 521.071L332.3 520.551L329.31 519.501L326.73 517.931L325.06 516.411L323.62 514.581L322.4 512.471L321.42 510.051L321 508.181L320.82 505.791L320.54 501.471L321.19 499.451L322.24 496.891L323.36 494.831L324.54 493.281L325.79 492.221L331.09 488.661L331.45 488.541L332.43 488.751L333.07 488.561L333.68 488.121L341 487.891ZM344.1 500.721L343.9 499.571L343.55 498.991L343.74 498.391L343.52 498.011L343 497.681L342.81 497.381L341.78 496.281L340.71 495.621L339.44 495.191L337.98 495.011L336.33 495.061L334.91 495.351L333.59 495.931L332.4 496.771L331.42 497.831L330.63 498.891L329.98 500.021V500.801L330.63 501.261L331.93 501.371L342.22 501.481L343.24 501.371L343.86 501.121L344.1 500.811V500.721Z" fill="black"/>
<path d="M435.96 497.159L435.93 499.63L431.94 498.969L428.03 499.039L427.38 498.849L427.04 498.25L426.63 496.71L425.83 495.7L424.81 495.24L423.49 495.18L421.57 494.909L419.73 495.029L418.06 495.339L417.51 495.649L417.17 496.06L417.02 496.62L417.09 497.289L417.21 497.63L417.13 497.649L416.99 498.279L417.08 498.82L417.47 499.349L418.19 499.75L423.56 501.359L430.25 502.529L433.68 504.39L433.62 504.609L434.28 504.909L435.32 506.33L436.08 507.77L436.56 509.21L436.76 510.669L436.67 512.229L436.26 513.799L435.54 515.38L434.5 516.979L432.66 518.919L430.54 520.159L429.88 520.38L427.65 520.93L425.39 521.27L422.17 521.419L418.9 521.169L415.59 520.52L412.24 519.46L409.42 516.95L408.81 515.289L408.09 513.159L407.92 511.45L408.23 509.89L409.81 509.729L411.16 510L411.53 510.12L413.66 510.609L415.89 510.77L416.37 510.88L416.75 511.18L417.38 512.469L417.59 512.93L417.95 513.24L420.53 514.289L423.26 514.71L425.42 514.409L426.27 514.01L426.99 513.43L427.3 513.049L427.67 512.349L427.76 511.659L427.56 510.99L427.08 510.339L427.01 510.409L426.83 510.089L426.88 509.96L426.56 509.63L424.55 508.789L422.48 508.289L419.25 508.18L417.99 508.01L416.96 507.43L415.08 506.839L412.56 505.81L411.17 504.839L409.92 503.62L408.83 502.13L407.88 500.399L407.58 498.969L407.84 498.799L407.96 498.18L407.79 497.81L407.59 497.899L407.83 496.43L408.3 495.24L410.04 492.46L412.26 490.33L414.88 488.87L417.96 488.02L420.34 487.77L422.74 487.779L425 488.06L427.18 488.609L429.12 489.38L430.92 490.399L432.47 491.62L433.82 493.08L435.05 494.969L435.96 497.159Z" fill="black"/>
<path d="M199.35 531.149L200.39 528.609L201.23 526.659L201.66 525.119L202.43 519.629L202.63 514.679L202.48 499.679L202.66 487.859L203.04 504.879L202.88 521.799L202.72 523.759L202.36 525.599L201.78 527.309L201 528.909L199.35 531.149Z" fill="#7D7B77" fill-opacity="0.996"/>
<path d="M330.669 508.801L330.159 508.301L330.02 507.821L330.419 507.201L330.95 506.951L331.65 506.871L353.07 507.011L353.76 506.731L354.07 506.071L354.099 503.161L353.75 500.471L353.039 497.991L351.96 495.731L350.9 494.161L349.62 492.721L348.14 491.401L346.44 490.201L343.719 489.111L342.289 488.581L341 487.891L342.919 488.241L344.69 488.771L346.34 489.501L347.84 490.431L349.46 491.771L350.88 493.391L352.099 495.281L353.14 497.441L354.5 501.521L355.12 505.321L354.99 506.281L354.5 507.121L353.71 507.691L352.77 507.911H352.669L342.07 507.861L332.12 508.081L331.549 508.181L330.669 508.801Z" fill="#7D7B77" fill-opacity="0.996"/>
<path d="M389.86 504.8L385.8 489.37L385.49 488.9L384.961 488.72H377.211L376.521 488.81L375.98 489.09L375.6 489.55L375.36 490.2L371.13 507.46L370.891 508.04L370.56 508.3L370.151 508.26L369.93 508L365.37 490.34L365.091 489.7L364.61 489.19L364 488.85L363.31 488.74H355.61L355.06 488.99L354.891 489.58L354.92 489.69L365.13 520.84L364.35 520.64L364.23 520.43L363.04 516.26L361.31 510.61L359.99 506.59L358.25 500.41L356.54 495.02L354.01 488.67L353.98 488.17L354.44 488.01H364.19L365.281 488.34L365.86 489.32L370.141 506.48L370.211 506.61L370.341 506.68L370.6 506.75L370.69 506.74L370.75 506.65L375.31 488.46L375.54 488.06L376 487.92H385.331L385.82 488.08L386.12 488.51L387.61 494.04L388.86 499.73L389.41 501.32L389.99 502.95L390.031 504.23L389.86 504.8Z" fill="#7D7B77" fill-opacity="0.996"/>
<path d="M396.36 519.93L405.81 490L405.89 489.49L405.78 489.12L405.46 488.89L404.93 488.82H397.35L396.45 489.09L395.98 489.91L393.94 498L391.3 507.23L390.84 508.04L390.48 508.22L390.35 507.84L390.34 506.97L390.76 506.31L391.45 504.68L395.81 488.8L396.04 488.42L396.44 488.22L400.15 487.83L403.79 488.01L406.07 488.42L406.14 488.44L406.67 488.92L406.69 489.64L404.5 495.57L402.67 501.66L401.13 507.03L398.82 514.16L397.57 517.98L396.36 519.93Z" fill="#7D7B77" fill-opacity="0.996"/>
<path d="M194.35 489.839L192.83 489.33L191.18 488.27L193.45 488.69L194.07 489.02L194.36 489.45L194.35 489.839Z" fill="#408F50"/>
<path d="M333.68 488.119L333.07 488.559L332.43 488.749L331.45 488.539L331.89 488.379L333.68 488.119Z" fill="#408F50"/>
<path d="M331.09 488.66L325.79 492.22L324.54 493.28L323.36 494.83L322.24 496.89L321.19 499.45L321.77 497.45L322.54 495.63L323.51 493.99L324.68 492.54L326 491.31L327.51 490.25L329.21 489.37L331.09 488.66Z" fill="#7D7B77" fill-opacity="0.996"/>
<path d="M389.86 504.799L390.34 506.969L390.35 507.839L390.48 508.219L390.84 508.039L391.3 507.229L393.94 497.999L395.98 489.909L396.45 489.089L397.35 488.819H404.93L405.46 488.889L405.78 489.119L405.89 489.489L405.81 489.999L396.36 519.929L396.01 520.449L395.59 520.689L395.5 520.709L391.53 520.959L386.71 520.689L385.87 520.369L385.66 520.159L385.73 519.879L385.76 519.599L385.72 519.409L381.76 506.489L381.6 506.149L381.72 505.159L381.19 504.329L381.12 503.599L380.83 503.039L380.63 502.849L380.7 502.759L380.81 502.079L380.7 501.839L380.65 501.809L380.54 501.749H380.3L379.86 502.179L374.67 520.629L365.13 520.839L354.92 489.689L354.89 489.579L355.06 488.989L355.61 488.739H363.31L364 488.849L364.61 489.189L365.09 489.699L365.37 490.339L369.93 507.999L370.15 508.259L370.56 508.299L370.89 508.039L371.13 507.459L375.36 490.199L375.6 489.549L375.98 489.089L376.52 488.809L377.21 488.719H384.96L385.49 488.899L385.8 489.369L389.86 504.799Z" fill="black"/>
<path d="M304.86 519.349L296.67 507.52L289.3 495.88L288.69 495.08L287.9 494.44L286.93 493.969L286.45 493.359L286.39 492.979L286.52 492.799L287.27 492.52L287.96 492.94L304.86 519.349Z" fill="#7D7B77" fill-opacity="0.996"/>
<path d="M95.5398 492.58L91.0098 501.41L91.6598 498.98L92.6497 496.67L93.9498 494.53L95.5398 492.58Z" fill="#7D7B77" fill-opacity="0.996"/>
<path d="M87.2898 500.789L87.0498 496.959L87.4598 493.269L87.5298 492.959L87.9098 494.649L87.9998 496.509L87.7898 498.559L87.2898 500.789Z" fill="#7D7B77" fill-opacity="0.996"/>
<path d="M226.49 493L223.02 500.22L223.42 498.08L224.18 496.11L225.19 494.48L226.49 493Z" fill="#7D7B77" fill-opacity="0.996"/>
<path d="M133.62 493.609L132.3 496.869L131.23 499.569L130.55 502.349L130.29 504.989L130.5 507.179L131.6 512.499L130.67 510.119L130.15 507.999L129.88 505.829L129.87 503.649L130.13 501.489L130.64 499.369L131.4 497.329L132.4 495.399L133.62 493.609Z" fill="#7D7B77" fill-opacity="0.996"/>
<path d="M155.82 499.18L154.42 497.56L152.89 496.35L151.18 495.48L149.41 495.02L147.09 495L144.87 495.58L142.85 496.7L141.13 498.3L139.88 500.19L139.08 502.4L138.8 504.81L139.06 507.22L139.48 508.68L140.08 509.97L140.9 511.18L141.88 512.19L143.04 513.03L144.32 513.66L145.7 514.07L147.16 514.26L148.61 514.23L150.1 513.99L151.59 513.53L153.06 512.84L153.18 513.09L153.19 513.19L153.13 513.26L151.18 514.22L149.25 514.76L147.26 514.89L145.37 514.6L143.97 514.11L142.67 513.39L141.5 512.46L140.46 511.35L139.59 510.05L138.9 508.59L138.43 507.09L138.16 505.47L138.14 503.53L138.45 501.68L139.12 499.87L140.09 498.24L141.36 496.8L142.87 495.65L144.48 494.87L146.24 494.42H148.72L151.11 495.07L153.26 496.25L154.93 497.82L155.82 499.18Z" fill="#7D7B77" fill-opacity="0.996"/>
<path d="M242.96 495.7L241.44 495.169L240.02 494.899L238.59 494.88L237.27 495.12L235.35 495.99L233.7 497.409L232.26 499.349L231.01 501.88L230.99 501.93L231.05 502.43L231.46 502.729L231.5 502.74L232.4 502.719L233.37 502.299L235.18 501.299L237.2 500.419L239.31 499.729L231 503.82L230.83 503.87L230.34 503.7L230.19 503.21L230.61 501.399L231.24 499.789L232.06 498.39L233.08 497.18L234.4 496.109L235.94 495.27L237.72 494.659L239.72 494.289L240.15 494.27L241.56 494.64L242.96 495.7Z" fill="#7D7B77" fill-opacity="0.996"/>
<path d="M194.02 499.319L192.28 497.389L190.26 495.989L189 495.439L187.61 495.079L186.23 494.979L184.67 495.189L183.12 495.739L180.99 497.059L179.41 498.759L178.55 500.379L178.04 502.249L177.87 504.369L178.06 506.719L178.41 508.339L178.94 509.769L179.66 510.989L180.57 511.999L181.69 512.829L183 513.449L184.47 513.849L186.14 514.059L190.11 513.919L188.39 514.569L186.58 514.829L184.16 514.559L181.89 513.589L180.73 512.759L179.69 511.739L178.8 510.559L178.07 509.249L177.53 507.839L177.19 506.359L177.04 504.839L177.11 503.309L177.79 500.529L179.14 498.079L181.06 496.159L182.19 495.439L183.4 494.909L185.7 494.459L187.54 494.569L189.32 495.079L190.98 495.969L192.45 497.209L194.02 499.319Z" fill="#7D7B77" fill-opacity="0.996"/>
<path d="M342.81 497.38L341.081 496.54L339.29 496.04L337.51 495.9L335.68 496.07L334.13 496.57L332.63 497.68L331.081 499.61L330.97 500.33L331.49 500.84L331.74 500.88L344.1 500.72V500.81L343.86 501.12L343.24 501.37L342.22 501.48L331.93 501.37L330.63 501.26L329.98 500.8V500.02L330.63 498.89L331.42 497.83L332.401 496.77L333.591 495.93L334.91 495.35L336.331 495.06L337.98 495.01L339.44 495.19L340.711 495.62L341.781 496.28L342.81 497.38Z" fill="#7D7B77" fill-opacity="0.996"/>
<path d="M419.729 495.029L418.34 495.899L417.09 497.289L417.02 496.619L417.169 496.059L417.51 495.649L418.06 495.339L419.729 495.029Z" fill="#7D7B77" fill-opacity="0.996"/>
<path d="M435.93 499.63L428 499.83L427.6 499.73L427.32 499.44L425.7 496.64L425.41 496.27L424.95 495.93L423.49 495.18L424.81 495.24L425.83 495.7L426.63 496.71L427.04 498.25L427.38 498.85L428.03 499.04L431.94 498.97L435.93 499.63Z" fill="#7D7B77" fill-opacity="0.996"/>
<path d="M106.01 495.25L103.76 496.72L101.87 498.5L100.3 500.72L99.1299 503.29L99.3599 501.66L99.7899 500.21L100.41 498.94L101.22 497.83L102.16 496.96L103.27 496.23L104.56 495.67L106.01 495.25Z" fill="#7D7B77" fill-opacity="0.996"/>
<path d="M114.03 496.699L110.94 495.289L112.34 495.529L113.23 495.999L114.03 496.699Z" fill="#408F50"/>
<path d="M173.64 516.8L171.79 514.75L170.38 512.42L169.37 509.75L168.84 506.95L168.77 504L169.2 501.09L170.06 498.41L171.38 495.93L170.29 499.26L169.47 502.73L169.34 506.13L169.75 508.9L170.61 511.61L171.91 514.24L173.64 516.8Z" fill="#7D7B77" fill-opacity="0.996"/>
<path d="M45.3203 496.26L46.4303 501.03L48.2003 505.47L49.5003 507.85L47.3803 505.27L45.9803 502.44L45.3203 499.47V496.26Z" fill="#7D7B77" fill-opacity="0.996"/>
<path d="M239.46 499.581L244.62 497.061L244.59 497.131L243.92 498.031L242.84 498.741L241.36 499.251L239.46 499.581Z" fill="#408F50"/>
<path d="M123.27 515.269L124.42 513.069L125.29 510.849L125.89 508.599L126.22 506.339L126.27 504.049L126.05 501.729L125.56 499.399L124.79 497.039L125.53 498.809L126.08 500.649L126.43 502.539L126.58 504.449L126.48 506.819L126.07 509.159L125.35 511.429L124.33 513.579L123.27 515.269Z" fill="#7D7B77" fill-opacity="0.996"/>
<path d="M343.55 498.99L343 497.68L343.52 498.01L343.74 498.39L343.55 498.99Z" fill="#408F50"/>
<path d="M417.13 497.65L419.09 499.31L421.25 500.33L422.77 500.66L426.9 501.4L430.25 502.53L423.56 501.36L418.19 499.75L417.47 499.35L417.08 498.82L416.99 498.28L417.13 497.65Z" fill="#7D7B77" fill-opacity="0.996"/>
<path d="M407.58 498.971L407.52 498.181L407.59 497.901L407.789 497.811L407.96 498.181L407.84 498.801L407.58 498.971Z" fill="#408F50"/>
<path d="M117.63 502.119L115.94 498.629L116.72 499.329L117.26 500.139L117.56 501.069L117.63 502.119Z" fill="#7D7B77" fill-opacity="0.996"/>
<path d="M153.7 512.35L154.82 511.04L155.71 509.69L156.38 508.28L156.82 506.82L157.05 505.13L157 503.37L156.67 501.55L156.05 499.66H156.15L156.2 499.67L156.3 499.79L156.92 501.4L157.32 503.12L157.47 504.79L157.4 506.47L157.1 507.99L156.58 509.43L155.87 510.66L154.93 511.76L154.05 512.48L153.98 512.51L153.9 512.5L153.7 512.36V512.35Z" fill="#7D7B77" fill-opacity="0.996"/>
<path d="M192.2 512.46L193.33 510.66L194.17 508.84L194.74 507L195.01 505.14L194.92 502.47L194.26 499.76L194.4 500.06L194.99 501.64L195.33 503.31L195.42 505.01L195.25 506.7L194.83 508.34L194.16 509.87L193.28 511.26L192.2 512.46Z" fill="#7D7B77" fill-opacity="0.996"/>
<path d="M165.13 500.359L165.67 503.659L165.59 507.009L164.91 510.269L163.64 513.349L161.83 516.139L159.54 518.539L156.84 520.469L153.84 521.869L150.75 522.659L147.59 522.889L144.44 522.549L148.5 522.229L151.67 521.889L154.62 520.999L156.39 520.159L158.04 519.119L159.54 517.909L160.9 516.539L162.09 515.019L163.1 513.369L163.92 511.609L164.54 509.749L165.07 506.579L164.99 503.259L164.91 501.649L165.13 500.359Z" fill="#7D7B77" fill-opacity="0.996"/>
<path d="M222.95 500.391L223.06 501.401L222.95 502.351L222.84 502.711L222.54 501.951L222.45 501.891L222.95 500.391Z" fill="#408F50"/>
<path d="M417.99 508.01L416.01 507.69L414.14 507.1L411.58 505.8L409.24 503.94L408.41 502.93L407.95 501.84L407.88 500.4L408.83 502.13L409.92 503.62L411.17 504.84L412.56 505.81L415.08 506.84L416.96 507.43L417.99 508.01Z" fill="#7D7B77" fill-opacity="0.996"/>
<path d="M77.7598 505.749L78.5698 502.559L78.4998 501.829L77.9297 501.289L78.4297 501.109L78.7798 501.159L79.0598 501.729L78.9798 502.909L78.2798 504.949L77.7598 505.749Z" fill="#7D7B77" fill-opacity="0.996"/>
<path d="M253.32 501.15L251.77 502.07L249.54 502.87L250.67 502.06L251.93 501.49L253.32 501.15Z" fill="#408F50"/>
<path d="M353.26 512.769L352.38 514.549L351.35 516.149L350.16 517.559L348.83 518.779L346.79 520.129L344.47 521.139L341.87 521.809L339 522.129L336.32 521.999L333.36 521.439L330.37 520.489L327.98 519.339L326.35 518.239L324.91 517.019L323.66 515.669L322.61 514.209L321.3 511.519L320.52 508.499L320.26 505.149L320.54 501.469L320.82 505.789L321 508.179L321.42 510.049L322.4 512.469L323.62 514.579L325.06 516.409L326.73 517.929L329.31 519.499L332.3 520.549L335.7 521.069L339.5 521.059L341.89 520.759L344.11 520.209L346.16 519.409L348.04 518.349L349.53 517.239L350.9 515.939L352.14 514.449L353.26 512.769Z" fill="#7D7B77" fill-opacity="0.996"/>
<path d="M380.63 502.85L378.14 511.15L375.85 519.48L375.48 520.07L374.67 520.63L379.86 502.18L380.3 501.75H380.54L380.65 501.81L380.7 501.84L380.81 502.08L380.7 502.76L380.63 502.85Z" fill="#7D7B77" fill-opacity="0.996"/>
<path d="M222.84 502.711L222.8 505.821L223.15 508.691L223.9 511.341L225.05 513.751L226.39 515.701L228.05 517.461L230.01 519.041L232.28 520.441L233.8 521.141L235.43 521.641L239.03 522.101L241.4 522.011L243.63 521.661L245.71 521.051L247.65 520.171L249.35 519.101L250.92 517.801L252.36 516.261L253.68 514.491L253.76 514.081L253.53 513.731L248.45 510.241L249.69 510.631L250.92 511.241L253.37 513.121L253.84 513.791L254.02 514.591L253.88 515.391L253.44 516.081L251.77 517.681L249.97 519.131L248.15 520.331L246.24 521.341L244.4 522.061L242.49 522.561L240.63 522.801H238.72L236.36 522.451L232.95 521.341L229.95 519.731L227.32 517.621L225.2 515.081L223.61 512.161L222.61 508.921L222.22 505.511L222.45 501.891L222.54 501.951L222.84 502.711Z" fill="#7D7B77" fill-opacity="0.996"/>
<path d="M86.8003 503.609L86.2903 506.849L85.7003 508.499L84.9003 510.089L82.8303 513.209L80.5303 515.909L77.9803 518.189L75.1903 520.039L73.0303 521.109L70.7303 521.969L68.3103 522.599L65.7703 523.009L61.5703 523.149L57.5303 522.589L54.9203 521.829L52.3903 520.759L49.9203 519.379L47.5303 517.689L49.7103 518.979L51.9403 520.069L54.2103 520.939L56.5403 521.599L60.7003 522.239L65.0003 522.249L68.3703 521.819L71.4903 521.019L74.3703 519.859L76.9903 518.339L78.9403 516.839L80.7203 515.089L82.3403 513.109L83.8003 510.889L84.5803 509.309L85.4403 507.009L86.8003 503.609Z" fill="#7D7B77" fill-opacity="0.996"/>
<path d="M381.19 504.33L381.72 505.16L381.6 506.15L381.21 505.28L381.17 504.46L381.19 504.33Z" fill="#7D7B77" fill-opacity="0.996"/>
<path d="M433.68 504.391L434.28 504.911L433.62 504.611L433.68 504.391Z" fill="#7D7B77" fill-opacity="0.996"/>
<path d="M412.24 519.46L415.59 520.52L418.9 521.17L422.17 521.42L425.39 521.27L427.65 520.93L429.88 520.38L430.54 520.16L432.66 518.92L434.5 516.98L435.54 515.38L436.26 513.8L436.67 512.23L436.76 510.67L436.56 509.21L436.08 507.77L435.32 506.33L434.28 504.91L435.85 505.98L436.73 507.31L436.87 507.8L437.21 510.3L437.16 512.57L436.73 514.6L435.91 516.41L434.95 517.71L433.74 518.85L432.27 519.84L430.54 520.68L428.43 521.43L426.32 521.95L424.22 522.24L422.13 522.31L419.64 522.08L417.17 521.53L414.7 520.66L412.24 519.46Z" fill="#7D7B77" fill-opacity="0.996"/>
<path d="M110.03 514.63L111.72 514.06L113.21 513.32L114.51 512.42L115.61 511.34L116.5 510.12L117.2 508.74L117.72 507.2L118.05 505.49L118.17 506.22L117.98 508.19L117.06 510.24L116.09 511.6L115.03 512.7L113.88 513.56L112.63 514.17L111.37 514.51L110.03 514.63Z" fill="#7D7B77" fill-opacity="0.996"/>
<path d="M99.0703 505.98L100.12 508.771L101.68 511.13L103.63 512.97L106.04 514.43L104.5 513.97L103.16 513.35L102 512.57L101.04 511.62L100.24 510.47L99.6403 509.15L99.2503 507.65L99.0703 505.98Z" fill="#7D7B77" fill-opacity="0.996"/>
<path d="M241.26 506.23L237.3 507.961L238.08 507.23L238.95 506.701L240.05 506.34L241.26 506.23Z" fill="#408F50"/>
<path d="M58.5996 513.89L62.0396 514.33L65.2296 514.27L68.1696 513.72L70.8396 512.66L72.6896 511.54L74.3996 510.14L75.9496 508.46L77.3696 506.49L76.2196 508.82L74.5196 510.84L72.2796 512.51L70.4096 513.49L68.5296 514.22L66.6296 514.69L64.7296 514.9L61.6796 514.72L58.5996 513.89Z" fill="#7D7B77" fill-opacity="0.996"/>
<path d="M385.66 520.16L385.43 519.96L385.28 519.71L384.38 516.98L382.92 511.78L381.76 506.49L385.72 519.41L385.76 519.6L385.73 519.88L385.66 520.16Z" fill="#7D7B77" fill-opacity="0.996"/>
<path d="M217.72 507.469L218.12 520.669L217.9 521.339L217.3 521.709L213.64 522.049L210.21 521.619L215.87 521.199L216.51 521.029L217.05 520.639L217.41 520.079L217.54 519.429L217.72 507.469Z" fill="#7D7B77" fill-opacity="0.996"/>
<path d="M95.6397 517.259L93.9497 515.199L92.5797 512.919L91.5697 510.459L90.9297 507.879L95.6397 517.259Z" fill="#7D7B77" fill-opacity="0.996"/>
<path d="M426.83 510.09L419.25 508.18L422.48 508.29L424.55 508.79L426.56 509.63L426.88 509.96L426.83 510.09Z" fill="#7D7B77" fill-opacity="0.996"/>
<path d="M234.3 509.23L233.45 509.84L232.68 510.85L232.28 510.451L232.18 510.1L232.76 509.59L234.3 509.23Z" fill="#7D7B77" fill-opacity="0.996"/>
<path d="M315.69 509.209L315.99 514.219L316.07 519.209L315.93 520.119L315.7 520.579L315.42 520.759L315.06 520.649L315.69 509.209Z" fill="#7D7B77" fill-opacity="0.996"/>
<path d="M408.23 509.891L407.92 511.451L408.09 513.161L408.81 515.291L409.42 516.951L408.2 515.291L407.43 513.511L407.09 510.991L407.2 510.281L407.5 509.891H408.23Z" fill="#7D7B77" fill-opacity="0.996"/>
<path d="M353.32 512.4L353.25 511.66L352.97 511.08L352.85 510.95L352.35 510.69L351.57 510.65H349.53L347.58 510.32L346.96 510.14L350.07 509.84L353.08 510.11L353.48 510.19L353.87 510.41L353.98 510.83L353.8 511.59L353.32 512.4Z" fill="#7D7B77" fill-opacity="0.996"/>
<path d="M427.08 510.34L427.56 510.99L427.76 511.66L427.67 512.35L427.3 513.05L426.99 513.43L426.27 514.01L425.42 514.41L423.26 514.71L420.53 514.29L417.95 513.24L417.59 512.93L417.38 512.47L416.75 511.18L416.37 510.88L415.89 510.77L413.66 510.61L411.53 510.12L411.16 510L416.24 510.13L416.7 510.27L416.96 510.68L417.45 511.82L418.17 512.7L419 513.27L420.01 513.63L422.21 513.96L424.21 513.89L425.75 513.41L426.71 512.55L427.08 511.6V510.34Z" fill="#7D7B77" fill-opacity="0.996"/>
<path d="M55.7096 512.91L54.5596 512.52L53.5396 511.95L52.0596 510.4L55.7096 512.91Z" fill="#408F50"/>
<path d="M343.97 510.77L343.33 512.099L342.41 513.039L340.99 513.669L339.18 513.77L343.97 510.77Z" fill="#7D7B77" fill-opacity="0.996"/>
<path d="M246.97 511.719L245.35 513.139L243.72 514.169L242.07 514.819L240.4 515.079L238.92 514.989L237.43 514.609L235.93 513.929L234.41 512.949L237.51 513.949L239.04 514.139L240.55 514.129L242.18 513.889L243.79 513.409L245.39 512.679L246.97 511.719Z" fill="#7D7B77" fill-opacity="0.996"/>
<path d="M336.77 513.729L335.51 513.879L334.469 513.599L333.52 512.709L336.77 513.729Z" fill="#7D7B77" fill-opacity="0.996"/>
<path d="M132.59 514.32L131.84 513L132.27 513.14L132.55 513.58L132.59 514.32Z" fill="#7D7B77" fill-opacity="0.996"/>
<path d="M143.79 522.41L140.45 521.26L137.4 519.48L134.74 517.14L132.59 514.32L134.94 516.92L137.57 519.13L140.54 520.97L143.79 522.41Z" fill="#7D7B77" fill-opacity="0.996"/>
<path d="M286.94 516.359L286.98 519.119L286.77 520.129L286.39 520.899L286.94 516.359Z" fill="#408F50"/>
<path d="M118.83 519.64L116.08 521.2L113.09 522.26L109.96 522.77L106.8 522.73L103.69 522.13L100.73 520.99L98.0196 519.35L95.6396 517.26L98.6496 519.33L101.68 520.86L104.75 521.85L107.85 522.3L110.56 522.24L113.29 521.78L116.05 520.92L118.83 519.64Z" fill="#7D7B77" fill-opacity="0.996"/>
<path d="M194.78 519.08L192.33 520.26L193.34 518.93L194.55 518.17L194.93 518.22L195.1 518.55L195.08 518.69L194.78 519.08Z" fill="#7D7B77" fill-opacity="0.996"/>
<path d="M194.96 520.109L194.85 522.269L194.46 524.169L193.77 525.819L192.8 527.199L191.08 528.619L188.87 529.589L190.53 528.759L191.85 527.639L193 525.849L193.91 523.169L194.96 520.109Z" fill="#7D7B77" fill-opacity="0.996"/>
<path d="M181.94 521.82L180.99 521.76L180.11 521.51L179.44 521.15L180.12 521.01L181.03 521.2L181.94 521.82Z" fill="#408F50"/>
<path d="M172.51 525.17L170.12 526.95L170.29 526.27L170.63 525.75L171.4 525.29L172.51 525.17Z" fill="#408F50"/>
<path d="M178.05 525.58L183.2 529.58L181.28 529.08L179.74 528.14L178.76 527.02L178.05 525.58Z" fill="#7D7B77" fill-opacity="0.996"/>
<path d="M178.12 535.72L175.15 534.17L172.77 532.1L171.19 529.91L170.04 527.35L171.24 529.23L172.6 530.98L175.15 533.53L178.12 535.72Z" fill="#7D7B77" fill-opacity="0.996"/>
<path d="M197.1 533.641L196.11 534.681L194.99 535.531L193.39 536.331L191.58 536.811L197.1 533.641Z" fill="#7D7B77" fill-opacity="0.996"/>
<path d="M189.68 537.219L188.16 537.649L186.63 537.809L185.11 537.689L183.59 537.309L186.73 536.959L189.68 537.219Z" fill="#7D7B77" fill-opacity="0.996"/>
<path d="M164.18 544.18L166.94 545.29L169.33 546.67L171.34 548.31L172.97 550.22L174.45 552.89L175.38 555.96L170.73 555.61L170.3 555.46L170.02 555.1L168.62 552.34L167.06 550.57L165.6 549.66L163.71 549L163.18 548.47L162.58 548.15L161.81 548.05L160.95 548.23L158.94 548.27L157.1 548.57L155.43 549.12L153.92 549.93L152.77 550.82L151.74 551.9L150.83 553.16L150.05 554.61L149.4 555.34L149.11 556.11L149.3 557.21L148.94 559.76L148.92 562.09L149.2 564.43L149.48 566.16L150.06 567.75L151.08 569.42L152.49 570.9L154.17 572.41L155.17 573.03L156.8 573.8L158.4 574.3L159.97 574.54L161.51 574.52L162.94 574.26L164.33 573.76L165.71 573.04L167.06 572.08L168.16 571.12L169.12 569.93L169.61 569.49L170.31 568.46L170.71 567.16L171.49 566.74L174.97 566.85L174.87 568.38L174.55 569.65L173.7 570.51L173.12 571.49L172.78 572.61L170.02 575.53L166.9 576.96L163.67 577.88L160.62 578.27L157.48 578.24L156.97 578.27L156.14 578.11L155.31 577.72L154.93 577.44L153.69 576.8L152.25 576.45L151.1 575.8L150.05 574.83L149.7 574.25L148.73 573.46L148.47 573.15L148.56 573.16L145.28 567.03L144.78 565.97L144.62 564.93L144.68 564.29L144.62 562.41L144.49 559.46L144.86 556.56L145.75 553.69L146.5 551.12L148.29 548.96L150.33 547.11L152.41 545.7L154.7 544.55L155.57 544.66L156.38 544.55L157.49 543.96L159.51 543.76L161.84 543.82L164.18 544.18Z" fill="black"/>
<path d="M240.55 546.77L238.27 545.78L236.48 544.97L235.04 544.58L233.55 544.4L231.31 544.33L229.05 544.49L227.46 544.78L226.04 545.24L224.78 545.86L223.68 546.66L221.87 548.67L220.83 550.9L220.6 552.17L220.59 553.5L220.81 554.9L221.24 556.35L221.56 557.08L222.75 558.71L224.53 560.08L226.97 561.26L230.5 562.44L234.09 563.69L231.54 563.29L229.07 562.64L226.69 561.73L224.64 560.64L222.93 559.4L221.66 558.09L220.73 556.66L220.17 555.06L220.06 552.93L220.57 550.78L221.6 548.5L222.86 546.85L223.85 546.01L225.08 545.29L226.82 544.55L228.56 544.03L230.29 543.74L232.02 543.68L234.17 543.92L236.31 544.52L238.43 545.47L240.55 546.77Z" fill="#7D7B77" fill-opacity="0.996"/>
<path d="M157.49 543.959L156.38 544.549L155.57 544.659L154.7 544.549L157.49 543.959Z" fill="#408F50"/>
<path d="M175.38 555.96L174.45 552.89L172.97 550.22L171.34 548.31L169.33 546.67L166.94 545.29L164.18 544.18L166.1 544.67L167.87 545.35L169.49 546.21L170.95 547.26L172.53 548.8L173.88 550.62L175 552.72L175.89 555.1L175.92 555.51L175.8 555.85L175.55 556.07L175.38 555.96Z" fill="#408F50"/>
<path d="M240.55 546.77L241.41 547.68L241.9 548.58L242.72 550.43L243.14 551.91L243.17 553.14L242.82 553.99L242.32 554.44L239.99 553.87L239.2 553.41L238.66 552.83L238.37 551.5L237.78 550.38L236.96 549.55L235.88 548.91L234.53 548.46L232.93 548.2L231.61 548.02L230.08 548.22L227.96 549L226.42 549.95L225.38 551.11L224.93 552.35L224.94 553.26L225.21 554.16L225.72 555.04L226.45 555.86L228.59 557.32L231.2 558.24L234.21 559.11L235.06 559.64L235.93 559.85L236.55 559.82L240.32 561.67L243.49 565.08L243.95 566.91L244.12 568.64L244.01 570.27L243.62 571.79L242.37 574.04L240.36 576.02L238.39 576.76L236.83 577.75L233.05 578.28L232.29 577.96L231.61 577.95L230.93 578.29L227.57 577.72L223.73 575.96L222.62 575.21L221.7 574.3L221.09 573.44L220.68 572.16L219.91 570.83L219.66 570.22L219.7 569.56L220.01 568.97L220.54 568.58L220.81 568.49L221.86 568.37L222.8 568.55L223.98 569.32L224.94 570.69L225.96 572.12L226.78 573.07L227.71 573.31L230.6 573.95L233.18 574.07L235.36 573.67L237.17 572.78L238.11 571.99L239.18 570.78L239.69 569.48L239.64 568.08L239.03 566.58L239 566.55L238.09 565.59L236.97 564.79L235.64 564.16L234.09 563.69L230.5 562.44L226.97 561.26L224.53 560.08L222.75 558.71L221.56 557.08L221.24 556.35L220.81 554.9L220.59 553.5L220.6 552.17L220.83 550.9L221.87 548.67L223.68 546.66L224.78 545.86L226.04 545.24L227.46 544.78L229.05 544.49L231.31 544.33L233.55 544.4L235.04 544.58L236.48 544.97L238.27 545.78L240.55 546.77Z" fill="black"/>
<path d="M104.74 544.729L104.26 545.079L103.82 545.849L103.7 546.929L103.88 559.989L103.62 575.669L103.74 576.769L104.19 577.549L104.64 577.869L103.86 578.049L103.24 577.669L103.03 577.119L103.13 545.629L103.2 545.269L103.48 544.789L103.83 544.539L104.25 544.529L104.74 544.729Z" fill="#7D7B77" fill-opacity="0.996"/>
<path d="M104.74 544.73L108.72 545.021L109.2 545.15L109.58 545.43L110.1 546.09L110.76 547.701L114.23 555.331L115.12 557.24L115.49 558.88L116.2 560.29L116.6 560.82L119.37 566.84L119.97 569.19L120.3 569.79L120.66 570.01L121.09 569.78L121.55 569.06L123.94 564.021L125.21 561.97L126.15 559.79L126.66 557.891L127.02 556.771L128.01 554.84L129.47 552.19L130.51 549.24L130.89 547.86L131.42 546.72L132.09 545.85L132.9 545.22L134.02 544.82L135.33 544.75L136.83 545.03L138.52 545.641L138.24 546.16L138.2 546.72V575.63L138.05 576.54L137.57 577.82L135.95 577.91L134.56 577.6L134.23 577.331L134.13 576.97L133.89 556.211L133.78 554.55L133.5 553.951L133.06 554.42L132.45 555.92L131.59 557.88L131.07 558.37L130.95 558.74L131.21 558.99L131.04 559.12H131.02L127.93 564.73L125.46 570.55L125.18 571.331L124 574.211L123.36 575.19L122.88 576.32L122.27 577.07L121.27 577.451L120.35 577.43L119.34 576.84L118.56 575.67L117.04 572.65L113.79 565.581L113.58 565.41L113.73 565.37L113.64 565.38L113.61 565.1L113.59 564.8L113.55 564.67L109.19 555.581L109.11 555.24L108.38 554.211L108.06 554.07L107.95 554.4V576.951L107.82 577.36L107.47 577.61L107.34 577.65L106.02 577.88L104.64 577.87L104.19 577.55L103.74 576.771L103.62 575.67L103.88 559.99L103.7 546.93L103.82 545.85L104.26 545.081L104.74 544.73Z" fill="black"/>
<path d="M201.01 546.961L203.05 550.071L203.87 551.821L204.2 553.541L204.16 555.481L203.84 557.351L203.14 559.411L202.08 561.371L201.95 561.591L201.34 562.301L200.52 562.891L196.36 563.951L192.16 564.561L189.15 564.721L186.12 564.661L185.63 564.831L185.42 565.301V565.321V576.071L185.33 576.491L185.07 576.831L184.44 577.281L183.76 577.511L183.15 577.541L182.52 577.361L182 576.961L181.67 576.391L181.57 575.741L181.81 568.121L181.84 560.461L181.67 552.771L181.29 545.051L193.5 544.811L195.65 544.941L197.7 545.391L199.39 546.051L201.01 546.961ZM186.09 560.811L194.19 560.741L195.35 560.841L196.38 560.611L197.4 559.961L198.26 558.891L199.26 557.521L199.86 555.661V553.481L199.82 552.521L199.54 551.691L198.84 550.801L197.77 550.101L196.22 549.351L194.05 548.521L191.83 548.051L189.01 547.961L186.11 548.431L185.73 548.651L185.56 549.051L185.29 552.131V555.111L185.55 558.011L186.09 560.811Z" fill="black"/>
<path d="M181.29 545.049L181.67 552.769L181.84 560.459L181.81 568.119L181.57 575.739L181.67 576.389L182 576.959L182.52 577.359L183.15 577.539L183.76 577.509L184.44 577.279L185.07 576.829L185.33 576.489L185.42 576.069V565.319V565.299L185.63 564.829L186.12 564.659L189.15 564.719L192.16 564.559L196.36 563.949L200.52 562.889L198.69 563.919L196.38 564.579L193.47 564.899L189.44 564.939L186.87 564.929L186.13 565.249L185.82 566.009V577.179L185.69 577.549L185.36 577.769L183.37 578.039L181.52 577.799L181.14 577.569L181.01 577.119L181.29 545.049Z" fill="#7D7B77" fill-opacity="0.996"/>
<path d="M138.52 545.641L138.72 546.511L138.94 547.621L138.96 576.941L138.8 577.501L138.38 577.911L137.57 577.821L138.05 576.541L138.2 575.631V546.721L138.24 546.161L138.52 545.641Z" fill="#7D7B77" fill-opacity="0.996"/>
<path d="M202.08 561.369L203.14 559.409L203.84 557.349L204.16 555.479L204.2 553.539L203.87 551.819L203.05 550.069L201.01 546.959L201.7 547.489L202.77 548.659L203.62 550.079L204.24 551.759L204.64 553.699L204.69 556.279L204.09 558.579L203.25 560.049L202.08 561.369Z" fill="#7D7B77" fill-opacity="0.996"/>
<path d="M163.71 548.999L160.95 548.229L161.81 548.049L162.58 548.149L163.18 548.469L163.71 548.999Z" fill="#408F50"/>
<path d="M196.22 549.349L192.33 548.899L189.58 548.919L186.81 549.209L186.42 549.399L186.28 549.819L186.09 560.809L185.55 558.009L185.29 555.109V552.129L185.56 549.049L185.73 548.649L186.11 548.429L189.01 547.959L191.83 548.049L194.05 548.519L196.22 549.349Z" fill="#7D7B77" fill-opacity="0.996"/>
<path d="M238.66 552.829L237.36 550.919L235.75 549.469L234.42 548.719L232.93 548.199L234.53 548.459L235.88 548.909L236.96 549.549L237.78 550.379L238.37 551.499L238.66 552.829Z" fill="#408F50"/>
<path d="M242.32 554.44L242.82 553.99L243.17 553.14L243.14 551.91L242.72 550.43L241.9 548.58L243.41 550.39L243.79 551.3L243.92 552.21L243.81 553.07L243.49 553.93L243.13 554.46L242.76 554.64L242.32 554.44Z" fill="#7D7B77" fill-opacity="0.996"/>
<path d="M130.51 549.24L129.47 552.19L128.01 554.84L128.84 552.27L130.51 549.24Z" fill="#7D7B77" fill-opacity="0.996"/>
<path d="M199.86 553.48L197.77 550.1L198.84 550.8L199.54 551.69L199.82 552.52L199.86 553.48Z" fill="#408F50"/>
<path d="M264.32 551.589L261.72 551.769L256.69 552.299L254.18 552.929L256.3 551.699L258.51 551.009L259.91 550.859L261.34 550.899L264.32 551.589Z" fill="#7D7B77" fill-opacity="0.996"/>
<path d="M293.9 552.55L292.03 551.93L289.71 551.65L290.84 551.18L291.99 550.99L293.26 551.12L293.67 551.34L293.88 551.75L293.92 551.95L293.9 552.55Z" fill="#7D7B77" fill-opacity="0.996"/>
<path d="M343.74 553.929L341.24 552.539L338.771 551.859L333.48 551.539L336.13 551.049L338.641 551.219L339.98 551.599L341.271 552.169L343.74 553.929Z" fill="#7D7B77" fill-opacity="0.996"/>
<path d="M367.79 555.799L367.04 555.789H364.42L365.56 555.459L367.1 555.329L367.74 555.189L368.28 554.819L368.64 554.269L368.77 553.629V553.339L368.67 552.599L368.36 552.079L367.83 551.779L367.09 551.689L363.51 551.779L365.17 551.109L366.66 550.939L368.23 551.139L368.62 551.359L368.84 551.749L369.03 553.189L369.01 554.939L368.78 555.539L368.39 555.759L367.79 555.799Z" fill="#7D7B77" fill-opacity="0.996"/>
<path d="M146.5 551.119L145.75 553.689L144.86 556.559L144.49 559.459L144.62 562.409L144.68 564.289L144.62 564.929L144.2 562.919L144 560.939L144.01 559.009L144.24 557.109L145.08 554.059L146.5 551.119Z" fill="#7D7B77" fill-opacity="0.996"/>
<path d="M266.28 552.17L269.2 554.56L270.82 556.45L272.19 558.58L273.39 562.89L273.2 563.01L273.16 563.35L273.39 563.89L272.78 565.94L258.87 566.21L253.76 566.01L253.07 566.3L252.85 567.01L252.89 567.17L253.2 569.34L254.74 571.42L256.36 572.98L258.05 574.02L259.82 574.54H261.67L263.59 574.03L265.59 572.99L267.66 571.43L267.77 570.92L268.44 570.01L269.72 569.33L271.97 569.9L272.5 570.33L272.53 571.01L272.47 571.12L271.04 573.17L269.22 575.25L267.13 577.14L264.46 577.78L260.8 578.04L257.04 577.61L256.56 577.22L255.92 577.01L255.15 577.03L252.66 575.22L250.7 573.04L249.38 570.72L248.5 568.09L248.7 563.94L248.85 561.48L249.43 559.18L250.2 557.46L251.25 555.83L252.57 554.31L254.16 552.88L254.18 552.93L256.69 552.3L261.72 551.77L264.32 551.59L264.82 551.6L266.28 552.17ZM253.48 559.58L252.96 561.52L252.99 562.13L253.21 562.51L253.56 562.64L257.29 563.02L260.86 562.65L261.37 562.53L266 562.91L266.34 562.92L267.33 562.75L268.3 562.29L268.58 561.76L268.62 561.08L268.37 560.31L266.99 558.52L265.6 557L263.6 555.68L262.02 555.28L260.54 555.13L259.15 555.23L257.85 555.57L256.61 556.18L255.47 557.05L254.43 558.19L253.48 559.58Z" fill="black"/>
<path d="M289.71 551.649L292.03 551.929L293.9 552.549L293.94 554.019L293.39 554.849L292.1 555.769L288.01 556.259L286.5 556.819L285.27 557.519L284.32 558.359L283.66 559.339L283.2 561.199L282.92 576.929L281.79 577.369L280.74 577.419L279.84 577.179L279.1 576.659L278.5 575.869L278.8 575.239L278.79 574.199L278.88 574.009L278.92 573.489L278.73 572.899L278.75 572.799L278.82 570.879L278.47 568.889L278.62 568.539L278.65 568.379L278.98 564.279L279.08 560.109L278.92 555.859L278.53 551.539L280.34 551.899L281.73 551.929L282.32 555.179L282.54 555.569L282.96 555.439L283.35 554.929L285.19 553.329L287.22 552.249L289.71 551.649Z" fill="black"/>
<path d="M333.48 551.539L338.77 551.859L341.24 552.539L343.74 553.929L344.95 554.959L346.54 557.099L347.66 559.409L348.18 561.259L348.45 563.199L348.18 564.929L347.96 565.649L347.57 566.139L346.99 566.409L346.24 566.449L341.79 566.159L337.31 566.079L332.81 566.199L328.27 566.519L328.5 568.179L328.94 569.639L329.58 570.899L330.42 571.949L331.92 573.079L333.85 574.079L335.8 574.459L337.36 574.339L338.94 573.819L341.09 572.919L342.67 571.559L343.61 569.889L343.66 569.809L343.71 569.769L343.95 569.709L343.99 569.719L344.7 569.729L346.57 569.259L347.44 569.679L347.79 570.389L347.8 571.439L345.78 574.689L345.57 574.909L340.01 577.839L335.55 578.239L335.08 577.819L334.65 578.289L331.83 577.689L329.36 576.529L327.98 575.529L326.74 574.309L325.63 572.869L324.66 571.219L324.68 570.399L324.44 569.759L324.05 569.369L323.69 568.179L323.54 566.989L323.86 560.979L325.11 557.689L325.97 556.259L326.98 554.969L329.09 553.089L330.8 552.719L332.32 552.029L332.87 551.659L333.48 551.539ZM334.41 555.679L332.95 556.109L331.65 556.789L330.64 557.589L329.76 558.589L329.01 559.779L328.39 561.169L328.31 561.699L328.47 562.219L328.83 562.619L329.32 562.839L329.53 562.859H341.99L342.61 562.749L343.15 562.469L343.35 562.729L343.65 562.599L343.83 562.279L343.66 561.889L343.69 561.299L343.58 561.009L343.19 559.399L342.43 558.089L341.38 557.129L340.01 556.439L339.08 556.139L338.8 555.859L337.06 555.269L335.76 555.289L334.41 555.679Z" fill="black"/>
<path d="M278.53 551.539L278.92 555.859L279.08 560.109L278.98 564.279L278.65 568.379L278.62 568.539L278.47 568.889L278.13 568.189L277.94 559.959L278.53 551.539Z" fill="#7D7B77" fill-opacity="0.996"/>
<path d="M332.87 551.66L332.32 552.03L330.8 552.72L329.09 553.09L330.96 552.08L332.86 551.66H332.87Z" fill="#7D7B77" fill-opacity="0.996"/>
<path d="M363.51 551.779L367.09 551.689L367.83 551.779L368.36 552.079L368.67 552.599L368.77 553.339V553.629L368.64 554.269L368.28 554.819L367.74 555.189L367.1 555.329L365.56 555.459L364.42 555.789L362.6 556.219L361.1 557.089L359.78 558.429L359.28 558.629L359.01 559.199L358.43 561.579L358.22 564.119L358.12 575.899L357.79 576.929L356.83 577.409L355.57 577.439L354.75 577.049L354.43 576.499L354.33 575.719L354.26 575.269L354.35 574.899L354.23 553.339L354.06 552.499L354.37 552.179L354.98 551.979L356.57 551.919L357.66 552.409L358.17 553.189L358.36 554.309L358.49 554.709L358.86 554.499L359.41 553.949L361.27 552.659L363.51 551.779Z" fill="black"/>
<path d="M283.35 554.93L282.961 555.44L282.54 555.57L282.32 555.18L281.73 551.93L282.211 551.94L282.641 552.24L282.97 552.84L283.35 554.93Z" fill="#7D7B77" fill-opacity="0.996"/>
<path d="M300.93 551.799L308.17 571.219L308.62 572.149L309.04 572.449L309.45 572.119L309.83 571.159L310.99 567.189L311.43 566.959L311.49 566.859L313.71 560.699L316.06 553.229L316.16 552.739L316.7 552.219L317.72 551.919L319.21 551.859L321.17 552.019L319.3 557.129L318.99 558.189L318.47 559.069L315.31 567.159L315.3 567.449L315.12 568.099L314.71 568.729L313.19 571.899L312.37 575.149L311.91 577.109L306.14 577.189L305.56 576.179L305.65 575.669L305.63 574.769L305.39 573.839L301.42 563.779L297.19 553.729L296.88 552.979L297.1 552.399L297.47 552.079L297.93 551.949L300.93 551.799Z" fill="black"/>
<path d="M310.99 567.189L309.83 571.159L309.45 572.119L309.04 572.449L308.62 572.149L308.17 571.219L300.93 551.799L303.5 557.049L305.46 562.659L306.94 566.599L308.31 570.319L308.72 570.969L308.79 570.999L309.06 571.059L309.21 571.039L309.61 570.809L309.78 570.389L310.12 568.879L310.74 567.559L310.99 567.189Z" fill="#7D7B77" fill-opacity="0.996"/>
<path d="M319.3 557.13L321.17 552.02L320.9 551.91L321.43 551.92L321.49 551.93L321.7 552.12L321.69 552.4L319.3 557.13Z" fill="#7D7B77" fill-opacity="0.996"/>
<path d="M272.19 558.58L270.82 556.45L269.2 554.56L266.28 552.17L268.34 553.12L270 554.46L271.32 556.3L272.19 558.58Z" fill="#7D7B77" fill-opacity="0.996"/>
<path d="M254.16 552.879L252.57 554.309L251.25 555.829L250.2 557.459L249.43 559.179L248.85 561.479L248.7 563.939L248.5 568.089L248.02 565.329L247.96 562.779L248.32 560.419L249.1 558.269L249.99 556.739L251.13 555.329L252.52 554.049L254.16 552.879Z" fill="#408F50"/>
<path d="M310.99 567.19L316.06 553.23L313.71 560.701L311.49 566.86L311.43 566.961L310.99 567.19Z" fill="#7D7B77" fill-opacity="0.996"/>
<path d="M293.94 554.02L293.95 555.06L293.75 555.5L293.35 555.74L292.1 555.77L293.39 554.849L293.94 554.02Z" fill="#7D7B77" fill-opacity="0.996"/>
<path d="M305.56 576.18L299.69 560.61L298.04 557.38L297.46 555.951L297.2 554.5L297.19 553.73L301.42 563.78L305.39 573.84L305.63 574.771L305.65 575.67L305.56 576.18Z" fill="#7D7B77" fill-opacity="0.996"/>
<path d="M344.95 554.96L343.74 553.93L344.08 553.99L344.57 554.32L344.95 554.96Z" fill="#408F50"/>
<path d="M150.05 554.609L149.3 557.209L149.11 556.109L149.4 555.339L150.05 554.609Z" fill="#408F50"/>
<path d="M263.6 555.679L259.85 555.869L258.081 556.299L256.451 557.179L253.48 559.579L254.43 558.189L255.47 557.049L256.61 556.179L257.85 555.569L259.151 555.229L260.54 555.129L262.021 555.279L263.6 555.679Z" fill="#7D7B77" fill-opacity="0.996"/>
<path d="M338.8 555.859L334.41 555.68L335.76 555.289L337.06 555.27L338.8 555.859Z" fill="#408F50"/>
<path d="M113.73 565.37L109.19 555.58L113.55 564.67L113.59 564.8L113.61 565.1L113.64 565.38L113.73 565.37Z" fill="#7D7B77" fill-opacity="0.996"/>
<path d="M288.01 556.26L286.74 556.98L284.76 558.78L283.2 561.2L283.66 559.34L284.32 558.36L285.27 557.52L286.5 556.82L288.01 556.26Z" fill="#7D7B77" fill-opacity="0.996"/>
<path d="M343.58 561.009L342.65 559.319L341.5 557.829L340.01 556.439L341.38 557.129L342.43 558.089L343.19 559.399L343.58 561.009Z" fill="#7D7B77" fill-opacity="0.996"/>
<path d="M115.12 557.24L116.17 559.23L116.6 560.82L116.2 560.29L115.49 558.88L115.12 557.24Z" fill="#408F50"/>
<path d="M123.94 564.021L124.88 561.131L126.66 557.891L126.15 559.791L125.21 561.971L123.94 564.021Z" fill="#7D7B77" fill-opacity="0.996"/>
<path d="M131.59 557.879L131.21 558.989L130.95 558.739L131.07 558.369L131.59 557.879Z" fill="#408F50"/>
<path d="M359.78 558.43L359.17 559.24L359.01 559.2L359.28 558.63L359.78 558.43Z" fill="#408F50"/>
<path d="M268.3 562.289L266.99 558.52L268.37 560.31L268.62 561.08L268.58 561.76L268.3 562.289Z" fill="#7D7B77" fill-opacity="0.996"/>
<path d="M198.26 558.891L197.4 559.961L196.38 560.611L195.35 560.841L194.19 560.741L198.26 558.891Z" fill="#7D7B77" fill-opacity="0.996"/>
<path d="M131.02 559.119L125.18 571.329L125.46 570.549L127.93 564.729L131.02 559.119Z" fill="#7D7B77" fill-opacity="0.996"/>
<path d="M236.55 559.819L235.93 559.849L235.06 559.639L234.21 559.109L235.22 559.229L236.12 559.559L236.55 559.819Z" fill="#408F50"/>
<path d="M359.17 559.239L358.97 575.799L358.81 576.589L358.35 577.259L357.68 577.699L356.88 577.859H354.76L354.31 577.729L354.05 577.369L353.97 577.039L354.02 576.399L354.33 575.719L354.43 576.499L354.75 577.049L355.57 577.439L356.83 577.409L357.79 576.929L358.12 575.899L358.22 564.119L358.43 561.579L359.01 559.199L359.17 559.239Z" fill="#7D7B77" fill-opacity="0.996"/>
<path d="M323.54 566.99L323.09 565.54L322.96 564.1L323.21 562.53L323.86 560.98L323.54 566.99Z" fill="#7D7B77" fill-opacity="0.996"/>
<path d="M243.49 565.08L240.32 561.67L241.56 562.23L242.52 563.04L243.12 563.96L243.49 565.08Z" fill="#7D7B77" fill-opacity="0.996"/>
<path d="M261.37 562.53L260.86 562.65L257.29 563.02L253.56 562.64L255.19 561.99L256.79 561.85L257.25 561.9L261.37 562.53Z" fill="#7D7B77" fill-opacity="0.996"/>
<path d="M343.66 561.891L343.83 562.281L343.65 562.601L343.35 562.731L343.15 562.471L343.66 561.891Z" fill="#7D7B77" fill-opacity="0.996"/>
<path d="M273.39 562.891L273.66 563.391L273.39 563.891L273.16 563.351L273.2 563.011L273.39 562.891Z" fill="#408F50"/>
<path d="M348.45 563.199L348.849 564.579L348.78 565.559L348.049 566.499L346.99 566.839L328.27 566.519L332.81 566.199L337.31 566.079L341.789 566.159L346.24 566.449L346.99 566.409L347.57 566.139L347.96 565.649L348.18 564.929L348.45 563.199Z" fill="#7D7B77" fill-opacity="0.996"/>
<path d="M149.2 564.43L152.49 570.9L151.08 569.42L150.06 567.75L149.48 566.16L149.2 564.43Z" fill="#7D7B77" fill-opacity="0.996"/>
<path d="M117.04 572.65L116.29 571.53L114.82 568.69L113.79 565.58L117.04 572.65Z" fill="#7D7B77" fill-opacity="0.996"/>
<path d="M174.97 566.85L171.49 566.74L173.47 566.02L174.15 566L174.64 566.22L174.97 566.85Z" fill="#7D7B77" fill-opacity="0.996"/>
<path d="M272.78 565.939L272.82 566.469L272.68 566.799L272.25 566.939L269.13 567.019H262.79L260.62 566.719L258.87 566.209L272.78 565.939Z" fill="#7D7B77" fill-opacity="0.996"/>
<path d="M238.11 571.99L238.68 570.47L239.01 568.91L239.03 566.58L239.64 568.08L239.69 569.48L239.18 570.78L238.11 571.99Z" fill="#7D7B77" fill-opacity="0.996"/>
<path d="M119.37 566.84L120.42 568.51L120.94 568.93L121.46 569.06H121.55L121.09 569.78L120.66 570.01L120.3 569.79L119.97 569.19L119.37 566.84Z" fill="#7D7B77" fill-opacity="0.996"/>
<path d="M148.56 573.159L146.68 570.929L145.57 568.469L145.28 567.029L148.56 573.159Z" fill="#7D7B77" fill-opacity="0.996"/>
<path d="M170.71 567.16L170.31 568.46L169.61 569.49L169.12 569.93L169.53 568.82L170.11 567.84L170.71 567.16Z" fill="#7D7B77" fill-opacity="0.996"/>
<path d="M224.94 570.69L223.98 569.32L222.8 568.549L221.86 568.37L220.81 568.49L220.54 568.58L220.01 568.969L219.7 569.56L219.66 570.219L219.91 570.83L220.68 572.159L221.09 573.44L219.86 571.77L218.99 569.75L218.98 569.7L218.94 569.14L219.12 568.609L219.5 568.2L220.01 567.969L222.37 567.77L223.27 567.99L223.98 568.43L224.63 569.359L224.94 570.69Z" fill="#7D7B77" fill-opacity="0.996"/>
<path d="M314.71 568.73L313.8 572.11L312.37 575.15L313.19 571.9L314.71 568.73Z" fill="#7D7B77" fill-opacity="0.996"/>
<path d="M253.2 569.34L254.77 571.14L256.41 572.5L258.11 573.42L259.87 573.91L261.72 573.96L263.63 573.56L265.61 572.72L267.66 571.43L265.59 572.99L263.59 574.03L261.67 574.54H259.82L258.05 574.02L256.36 572.98L254.74 571.42L253.2 569.34Z" fill="#7D7B77" fill-opacity="0.996"/>
<path d="M267.13 577.14L269.22 575.25L271.04 573.17L272.47 571.12L272.53 571.01L272.5 570.33L271.97 569.9L269.72 569.33L271.4 569.09L272 569.26L272.48 569.66L272.76 570.22L272.79 570.84L272.76 570.98L271.79 573.43L270.31 575.33L268.86 576.39L267.13 577.14Z" fill="#7D7B77" fill-opacity="0.996"/>
<path d="M346.57 569.259L344.7 569.729L343.99 569.719L344.95 569.209L345.72 569.119L346.57 569.259Z" fill="#408F50"/>
<path d="M174.55 569.65L174.07 570.96L173.34 572.06L172.78 572.61L173.12 571.49L173.7 570.51L174.55 569.65Z" fill="#408F50"/>
<path d="M324.66 571.219L324.43 570.789L324.05 569.369L324.44 569.759L324.68 570.399L324.66 571.219Z" fill="#7D7B77" fill-opacity="0.996"/>
<path d="M347.8 571.439L347.54 572.429L347.1 573.309L345.78 574.689L347.8 571.439Z" fill="#7D7B77" fill-opacity="0.996"/>
<path d="M167.06 572.08L165.71 573.04L164.33 573.76L162.94 574.26L161.51 574.52L159.97 574.54L158.4 574.3L156.8 573.8L155.17 573.03L158.22 573.81L161.22 573.91L164.17 573.33L167.06 572.08Z" fill="#7D7B77" fill-opacity="0.996"/>
<path d="M227.71 573.309L226.78 573.069L225.96 572.119L226 572.129L226.9 572.559L227.71 573.309Z" fill="#408F50"/>
<path d="M124 574.21L123.16 576.65L122.74 577.4L122.4 577.74L121.95 577.89L120.24 577.84L119.06 577.34L118.48 576.77L118.05 576.04L117.29 573.63L117.04 572.65L118.56 575.67L119.34 576.84L120.35 577.43L121.27 577.45L122.27 577.07L122.88 576.32L123.36 575.19L124 574.21Z" fill="#7D7B77" fill-opacity="0.996"/>
<path d="M278.73 572.9L278.92 573.49L278.88 574.01L278.79 574.2L278.5 573.66L278.49 573.21L278.73 572.9Z" fill="#408F50"/>
<path d="M338.94 573.82L337.36 574.34L335.8 574.46L333.85 574.08L331.92 573.08L334.31 573.74L336.7 573.98L338.94 573.82Z" fill="#7D7B77" fill-opacity="0.996"/>
<path d="M150.05 574.829L149.76 574.749L149.17 574.279L148.73 573.459L149.7 574.249L150.05 574.829Z" fill="#408F50"/>
<path d="M345.57 574.91L344.66 575.86L343.64 576.63L341.95 577.43L340.01 577.84L345.57 574.91Z" fill="#7D7B77" fill-opacity="0.996"/>
<path d="M170.02 575.529L167.22 577.399L164.24 578.489L162.62 578.749L160.96 578.789L159.24 578.619L157.48 578.239L160.62 578.269L163.67 577.879L166.9 576.959L170.02 575.529Z" fill="#7D7B77" fill-opacity="0.996"/>
<path d="M227.57 577.719L226.18 577.509L224.97 576.999L223.73 575.959L227.57 577.719Z" fill="#408F50"/>
<path d="M240.36 576.02L238.18 577.32L236.83 577.75L238.39 576.76L240.36 576.02Z" fill="#7D7B77" fill-opacity="0.996"/>
<path d="M281.79 577.369L282.66 577.749L279.79 577.759L278.94 577.479L278.46 577.009L278.36 576.499L278.5 575.869L279.1 576.659L279.84 577.179L280.74 577.419L281.79 577.369Z" fill="#7D7B77" fill-opacity="0.996"/>
<path d="M155.31 577.719L154.93 577.669L153.56 577.249L152.25 576.449L153.69 576.799L154.93 577.439L155.31 577.719Z" fill="#408F50"/>
<path d="M257.04 577.61L256.63 577.62L255.88 577.45L255.15 577.03L255.92 577.01L256.56 577.22L257.04 577.61Z" fill="#408F50"/>
<path d="M282.92 576.93L282.55 577.63L282.66 577.75L281.79 577.37L282.92 576.93Z" fill="#408F50"/>
<path d="M311.91 577.109L310.58 577.829L309.22 578.119L307.69 577.919L306.14 577.189L311.91 577.109Z" fill="#7D7B77" fill-opacity="0.996"/>
<path d="M233.05 578.279L232.24 578.519L230.93 578.289L231.61 577.949L232.29 577.959L233.05 578.279Z" fill="#7D7B77" fill-opacity="0.996"/>
<path d="M335.55 578.24L334.65 578.29L335.08 577.82L335.55 578.24Z" fill="#408F50"/>
</svg>
